<?xml version="1.0" encoding="utf-8"?>
<!-- Generator: Adobe Illustrator 20.0.0, SVG Export Plug-In . SVG Version: 6.00 Build 0)  -->
<svg version="1.1" id="People" xmlns="http://www.w3.org/2000/svg" xmlns:xlink="http://www.w3.org/1999/xlink" x="0px" y="0px"
	 viewBox="0 0 160.7 159" style="enable-background:new 0 0 160.7 159;" xml:space="preserve">
<style type="text/css">
	.st0{display:none;}
	.st1{display:inline;}
	.st2{fill:none;stroke:#16B14B;stroke-linecap:round;stroke-linejoin:round;stroke-miterlimit:10;}
	.st3{fill:none;stroke:#00EE4F;stroke-linecap:round;stroke-linejoin:round;stroke-miterlimit:10;}
	.st4{fill:none;stroke:#00EE4F;stroke-linecap:round;stroke-miterlimit:10;}
	.st5{fill:none;stroke:#16B14B;stroke-linecap:round;stroke-linejoin:round;stroke-miterlimit:10;stroke-dasharray:2,3;}
	.st6{fill:none;stroke:#5AB04B;stroke-linecap:round;stroke-linejoin:round;stroke-miterlimit:10;}
	.st7{fill:none;stroke:#5AB24F;stroke-linecap:round;stroke-linejoin:round;stroke-miterlimit:10;}
	.st8{fill:none;stroke:#16B14B;stroke-miterlimit:10;}
	.st9{fill:none;stroke:#00EE4F;stroke-miterlimit:10;}
	.st10{fill:none;stroke:#16B14B;stroke-linecap:round;stroke-miterlimit:10;}
	.st11{fill:none;stroke:#16B14B;stroke-width:1.1328;stroke-linecap:round;stroke-linejoin:round;stroke-miterlimit:10;}
	.st12{fill:none;stroke:#00EE4F;stroke-width:1.1328;stroke-linecap:round;stroke-linejoin:round;stroke-miterlimit:10;}
	.st13{fill:#00EE4F;}
	.st14{fill:#FFFFFF;stroke:#16B14B;stroke-linecap:round;stroke-miterlimit:10;}
	.st15{fill:#FFFFFF;stroke:#16B14B;stroke-linecap:round;stroke-linejoin:round;stroke-miterlimit:10;}
	.st16{opacity:0.3;fill:none;stroke:#000000;stroke-linecap:round;stroke-miterlimit:10;enable-background:new    ;}
	.st17{fill:none;stroke:#DFDFDF;stroke-linecap:round;stroke-linejoin:round;stroke-miterlimit:10;}
	.st18{display:inline;fill:none;stroke:#00EE4F;stroke-linecap:round;stroke-linejoin:round;stroke-miterlimit:10;}
	.st19{fill:none;stroke:#FFFFFF;stroke-linecap:round;stroke-linejoin:round;stroke-miterlimit:10;}
	.st20{display:inline;fill:none;stroke:#16B14B;stroke-linecap:round;stroke-miterlimit:10;}
	.st21{display:inline;fill:none;stroke:#FFFFFF;stroke-linecap:round;stroke-miterlimit:10;}
</style>
<g id="Portfolio" class="st0">
	<g class="st1">
		<rect x="35.2" y="55.8" class="st2" width="90.2" height="60"/>
		<path class="st3" d="M60,53.2v-8.6c0-0.7,0.6-1.3,1.3-1.3h38.1c0.7,0,1.3,0.6,1.3,1.3v8.6"/>
		<g>
			<polyline class="st3" points="58.6,89.1 58.6,96.8 50.1,96.8 50.1,89.1 			"/>
			<polyline class="st3" points="110.6,89.1 110.6,96.8 102.1,96.8 102.1,89.1 			"/>
		</g>
		<g>
			<polyline class="st3" points="58.6,84.1 58.6,76.4 50.1,76.4 50.1,84.1 			"/>
			<polyline class="st3" points="110.6,84.1 110.6,76.4 102.1,76.4 102.1,84.1 			"/>
		</g>
		<line class="st2" x1="38.8" y1="86.8" x2="121.3" y2="86.8"/>
	</g>
</g>
<g id="Calendar" class="st0">
	<g class="st1">
		<line class="st2" x1="59" y1="42.9" x2="101.6" y2="42.9"/>
		<polyline class="st2" points="108.9,42.9 121.3,42.9 121.3,125 39.3,125 39.3,42.9 51.8,42.9 		"/>
		<g>
			<line class="st3" x1="55.4" y1="51.8" x2="55.4" y2="34"/>
			<line class="st3" x1="105.3" y1="51.8" x2="105.3" y2="34"/>
		</g>
		<g>
			<rect x="50.2" y="76" class="st3" width="14.8" height="14.8"/>
			<rect x="72.9" y="76" class="st3" width="14.8" height="14.8"/>
			<rect x="50.2" y="97.3" class="st3" width="14.8" height="14.8"/>
			<rect x="72.9" y="97.3" class="st3" width="14.8" height="14.8"/>
			<rect x="95.6" y="97.3" class="st3" width="14.8" height="14.8"/>
		</g>
		<g>
			<line class="st2" x1="103.7" y1="82.5" x2="109.8" y2="76.4"/>
			<line class="st2" x1="95" y1="91.2" x2="101.1" y2="85"/>
			<line class="st2" x1="94.8" y1="76.1" x2="110" y2="91.4"/>
		</g>
	</g>
</g>
<g id="Live_Market_News_x2F_Webcasts" class="st0">
	<g class="st1">
		<path id="XMLID_1_" class="st2" d="M31.1,84.6v5.9c0,1.9-1.6,3.5-3.5,3.5l0,0c-1.9,0-3.5-1.6-3.5-3.5v-4.9c0-1.7-1.4-3.1-3.1-3.1
			h-6.7"/>
		<path id="XMLID_3_" class="st4" d="M31.1,81.7v-13c0-1.9,1.6-3.5,3.5-3.5l0,0c1.9,0,3.5,1.6,3.5,3.5v13"/>
		<path id="XMLID_6_" class="st4" d="M45,81.7V54.2c0-1.9,1.6-3.5,3.5-3.5l0,0c1.9,0,3.5,1.6,3.5,3.5v27.4"/>
		<path id="XMLID_5_" class="st2" d="M45,84.6v20.2c0,1.9-1.6,3.5-3.5,3.5l0,0c-1.9,0-3.5-1.6-3.5-3.5V84.6"/>
		<path id="XMLID_8_" class="st4" d="M59,81.7V39.8c0-1.9,1.6-3.5,3.5-3.5l0,0c1.9,0,3.5,1.6,3.5,3.5v41.8"/>
		<path id="XMLID_7_" class="st2" d="M59,84.6v34.6c0,1.9-1.6,3.5-3.5,3.5l0,0c-1.9,0-3.5-1.6-3.5-3.5V84.6"/>
		<path id="XMLID_10_" class="st4" d="M72.9,81.7V54.2c0-1.9,1.6-3.5,3.5-3.5l0,0c1.9,0,3.5,1.6,3.5,3.5v27.4"/>
		<path id="XMLID_9_" class="st2" d="M72.9,84.6v34.6c0,1.9-1.6,3.5-3.5,3.5l0,0c-1.9,0-3.5-1.6-3.5-3.5V84.6"/>
		<path id="XMLID_12_" class="st4" d="M86.9,81.7v-13c0-1.9,1.6-3.5,3.5-3.5l0,0c1.9,0,3.5,1.6,3.5,3.5v13"/>
		<path id="XMLID_11_" class="st2" d="M86.9,84.6v20.2c0,1.9-1.6,3.5-3.5,3.5l0,0c-1.9,0-3.5-1.6-3.5-3.5V84.6"/>
		<path id="XMLID_14_" class="st4" d="M100.8,81.7V39.8c0-1.9,1.6-3.5,3.5-3.5l0,0c1.9,0,3.5,1.6,3.5,3.5v41.8"/>
		<path id="XMLID_13_" class="st2" d="M100.8,84.6v34.6c0,1.9-1.6,3.5-3.5,3.5l0,0c-1.9,0-3.5-1.6-3.5-3.5V84.6"/>
		<path id="XMLID_16_" class="st4" d="M114.8,81.7V54.2c0-1.9,1.6-3.5,3.5-3.5l0,0c1.9,0,3.5,1.6,3.5,3.5v27.4"/>
		<path id="XMLID_15_" class="st2" d="M114.8,84.6V112c0,1.9-1.6,3.5-3.5,3.5l0,0c-1.9,0-3.5-1.6-3.5-3.5V84.6"/>
		<path id="XMLID_18_" class="st4" d="M128.7,81.7v-13c0-1.9,1.6-3.5,3.5-3.5l0,0c1.9,0,3.5,1.6,3.5,3.5v8.1c0,1.7,1.4,3.1,3.1,3.1
			h7.6"/>
		<path id="XMLID_17_" class="st2" d="M128.7,84.6v13c0,1.9-1.6,3.5-3.5,3.5l0,0c-1.9,0-3.5-1.6-3.5-3.5v-13"/>
	</g>
</g>
<g id="Watch_Lists" class="st0">
	<g class="st1">
		<circle class="st2" cx="130.2" cy="56.2" r="6.1"/>
		<circle class="st2" cx="108.8" cy="41.9" r="6.1"/>
		<circle class="st2" cx="46.4" cy="61.8" r="6.1"/>
		<circle class="st2" cx="30.5" cy="83.5" r="6.1"/>
		<circle class="st2" cx="82.5" cy="65.9" r="11"/>
		<line class="st2" x1="36.5" y1="75.2" x2="40.9" y2="69.1"/>
		<line class="st2" x1="60.6" y1="64" x2="67.7" y2="65.3"/>
		<line class="st2" x1="116.5" y1="46.8" x2="122.5" y2="50.8"/>
		<line class="st2" x1="92.7" y1="56.2" x2="98.4" y2="50.8"/>
		<path class="st3" d="M108.7,64.1c-1.1-13.6-12.4-24.2-26.2-24.2c-13.9,0-25.2,10.8-26.2,24.4"/>
		<path class="st3" d="M56.2,67.9c0.9,13.7,12.3,24.6,26.2,24.6c13.9,0,25.2-10.7,26.2-24.4"/>
		<polyline class="st3" points="86.7,97.9 86.7,123.2 78.3,123.2 78.3,97.9 		"/>
	</g>
</g>
<g id="Idea" class="st0">
	<g class="st1">
		<line class="st3" x1="80.3" y1="50.3" x2="80.3" y2="35.2"/>
		<line class="st3" x1="60.3" y1="58.6" x2="49.6" y2="48"/>
		<line class="st3" x1="52" y1="78.7" x2="36.9" y2="78.7"/>
		<line class="st3" x1="60.3" y1="98.7" x2="49.6" y2="109.4"/>
		<line class="st3" x1="100.4" y1="98.7" x2="111" y2="109.4"/>
		<line class="st3" x1="108.7" y1="78.7" x2="123.8" y2="78.7"/>
		<line class="st3" x1="100.4" y1="58.6" x2="111" y2="48"/>
		<path class="st2" d="M102.4,78.9c0-15.8-16.5-27.7-33.2-19.4c-3.6,1.8-6.6,4.8-8.4,8.4c-6.1,12.3-1.2,24.4,8,30v8.6h22.8v-8.6
			C98.1,94,102.4,87,102.4,78.9z"/>
		<polyline class="st3" points="69,110.5 69,123.8 91.6,123.8 91.6,110.5 		"/>
		<line class="st2" x1="80.3" y1="102.8" x2="80.3" y2="95.3"/>
		<path class="st2" d="M86.2,86.1c0,3.3-2.6,5.9-5.9,5.9s-5.9-2.6-5.9-5.9"/>
		<line class="st3" x1="72.1" y1="116.1" x2="88.5" y2="116.1"/>
	</g>
</g>
<g id="Money" class="st0">
	<g class="st1">
		<circle class="st2" cx="80.3" cy="79.5" r="44.2"/>
		<path class="st3" d="M75,101.6c-6.9-1.9-10.2-7.5-10.2-11.3"/>
		<path class="st3" d="M86,78.5c6.8,2,9.8,7.5,9.8,11.9c0,4.4-3.2,9.4-9.8,11.2"/>
		<path class="st3" d="M75.1,58.1c-4.5,1.5-8.1,5.1-7.3,10.6c0.6,4.2,3.6,6.8,7.2,8.1"/>
		<path class="st3" d="M93.5,67.5c0,0-0.7-6.7-7.5-9.2"/>
		<line class="st2" x1="80.3" y1="51.2" x2="80.3" y2="107.8"/>
	</g>
</g>
<g id="Pricing" class="st0">
	<g class="st1">
		<path class="st2" d="M56.2,107.3L72,123.1c1.1,1.1,2.9,1.1,4.1,0l46.8-46.3c0.7-0.7,1.2-1.7,1.2-2.8v-34c0-2.8-2.3-5.1-5.1-5.1
			H88.4c-1,0-2,0.4-2.8,1.1L37.4,84.4c-1.1,1.1-1.1,3,0,4.1l14.6,14.6"/>
		<circle class="st3" cx="105.5" cy="53.4" r="5.6"/>
		<path class="st2" d="M75.1,97.6c-4.9-1.4-7.2-5.3-7.2-8"/>
		<path class="st2" d="M82.8,81.3c4.8,1.4,6.9,5.3,6.9,8.4c0,3.1-2.3,6.6-6.9,7.9"/>
		<path class="st2" d="M75.1,66.9c-3.2,1.1-5.7,3.6-5.2,7.5c0.4,2.9,2.5,4.8,5.1,5.7"/>
		<path class="st2" d="M88.1,73.5c0,0-0.5-4.7-5.3-6.5"/>
		<line class="st3" x1="78.8" y1="62" x2="78.8" y2="102"/>
	</g>
</g>
<g id="Tools" class="st0">
	<g class="st1">
		<rect x="93.8" y="75.9" class="st3" width="24.6" height="44.6"/>
		<line class="st3" x1="94.5" y1="84.1" x2="117.5" y2="84.1"/>
		<line class="st3" x1="94.5" y1="112.3" x2="117.5" y2="112.3"/>
		<polyline class="st2" points="90,106.6 29.4,106.6 29.4,38.5 131.3,38.5 131.3,106.6 121.9,106.6 		"/>
		<line class="st2" x1="128" y1="93.4" x2="121.9" y2="93.4"/>
		<line class="st2" x1="89.8" y1="93.4" x2="33.2" y2="93.4"/>
		<polyline class="st2" points="90.8,120.5 56.1,120.5 66.8,106.6 		"/>
	</g>
</g>
<g id="Savings_01" class="st0">
	<g class="st1">
		<line class="st5" x1="80.3" y1="70.8" x2="80.3" y2="53.6"/>
		<circle class="st2" cx="80.3" cy="100.9" r="27.4"/>
		<circle class="st3" cx="80.3" cy="108.4" r="11.1"/>
		<g>
			<path class="st2" d="M54.4,85.7c0,0-3.9-9.9-2.4-17.7c0,0,8.4-0.8,15.5,5.5"/>
			<path class="st2" d="M106.3,85.7c0,0,3.9-9.9,2.4-17.7c0,0-8.4-0.8-15.5,5.5"/>
		</g>
		<g>
			<circle class="st3" cx="76.4" cy="106.6" r="2.3"/>
			<circle class="st3" cx="84.2" cy="106.6" r="2.3"/>
		</g>
		<polyline class="st2" points="57.8,121.5 57.8,137.7 75.1,137.7 75.1,131.4 		"/>
		<polyline class="st2" points="102.9,121.3 102.9,137.7 85.6,137.7 85.6,131.4 		"/>
		<g>
			<g>
				<path class="st2" d="M77.8,43c-1.5-0.8-2.2-2.1-2.2-3.1"/>
				<path class="st2" d="M82.9,36.6c1.5,0.8,2.2,2.2,2.2,3.3c0,1.1-0.7,2.4-2.1,3.1"/>
				<path class="st2" d="M77.8,30.5c-0.9,0.6-1.5,1.5-1.3,2.8c0.1,0.9,0.6,1.6,1.3,2"/>
				<path class="st2" d="M84.4,32.9c0,0-0.2-1.5-1.5-2.4"/>
				<line class="st2" x1="80.3" y1="27.9" x2="80.3" y2="45.3"/>
			</g>
		</g>
		<circle class="st3" cx="80.3" cy="36.3" r="15"/>
	</g>
</g>
<g id="Standard_Account" class="st0">
	<g class="st1">
		<polyline class="st2" points="65.5,69.2 65.5,55.6 89,55.6 89,120.7 67.3,120.7 		"/>
		<polyline class="st3" points="88.9,51.1 88.9,38.3 112.4,38.3 112.4,120.7 92.8,120.7 		"/>
		<polyline class="st2" points="116.4,81.5 135.9,81.5 135.9,120.7 116.4,120.7 		"/>
		<circle class="st3" cx="50.5" cy="94.9" r="25.8"/>
		<line class="st3" x1="37.6" y1="78.5" x2="50.4" y2="94.9"/>
		<line class="st3" x1="50.4" y1="94.9" x2="35.4" y2="110.7"/>
		<line class="st3" x1="50.4" y1="94.9" x2="71.6" y2="94.9"/>
	</g>
</g>
<g id="Trade" class="st0">
	<g class="st1">
		<circle class="st2" cx="31.5" cy="104.7" r="10.7"/>
		<circle class="st2" cx="59.3" cy="76.9" r="10.7"/>
		<circle class="st2" cx="101.4" cy="82.1" r="10.7"/>
		<circle class="st2" cx="129.2" cy="54.3" r="10.7"/>
		<line class="st3" x1="44" y1="94.5" x2="48.9" y2="89.4"/>
		<line class="st3" x1="75.7" y1="79.4" x2="85" y2="81.1"/>
		<line class="st3" x1="113.6" y1="71.4" x2="118.7" y2="66.6"/>
	</g>
</g>
<g id="Education" class="st0">
	<g class="st1">
		<g>
			<path class="st2" d="M73.3,86c-1.4-11-10.8-19.4-22.1-19.4c-11.3,0-20.7,8.5-22.1,19.4"/>
			<path class="st2" d="M29.1,91.7c1.4,10.9,10.8,19.4,22.1,19.4c11.3,0,20.7-8.5,22.1-19.4"/>
		</g>
		<line class="st3" x1="77.6" y1="88.8" x2="82.6" y2="88.8"/>
		<polyline class="st3" points="63.3,53.8 57.1,47.9 42.4,62.7 		"/>
		<g>
			<path class="st2" d="M87.4,86c1.4-11,10.8-19.4,22.1-19.4c11.4,0,21.1,8.5,22.1,19.4"/>
			<path class="st2" d="M131.6,91.7c-1.4,10.9-10.8,19.4-22.1,19.4c-11.3,0-20.7-8.5-22.1-19.4"/>
		</g>
		<polyline class="st3" points="97.3,53.8 103.5,47.9 118.3,62.7 		"/>
	</g>
</g>
<g id="Savings_02" class="st0">
	<g class="st1">
		<circle class="st3" cx="48.1" cy="69.2" r="3.9"/>
		<path class="st2" d="M128.4,80.4c1.1-1.3,1.9-2.9,1.8-4.6c0-1.2-0.5-2.4-1.4-3.2c-1-1-2.4-1.4-3.8-1.4c-0.9,0-1.8,0.1-2.6,0.5
			s-1.5,0.9-2,1.7c-0.5,1-0.6,2.2-0.3,3.2s1,2,1.7,2.8c1.2,1.2,2.5,2.3,4.1,3c1.6,0.8,3.4,1.3,5.2,0.9c2.3-0.5,4.3-2.3,5.7-4.2
			c0.4-0.6,0.7-1.1,0.9-1.8c0.3-0.8,0.5-1.6,0.7-2.4"/>
		<path class="st6" d="M114.1,86.5c3.3-0.5,6-1.3,9.1-2.6c0.1,0,0.2-0.1,0.3-0.1"/>
		<line class="st3" x1="61.4" y1="47.2" x2="86.7" y2="47.2"/>
		<path class="st2" d="M74.1,36.8c-9.2-0.1-17.7,3-24.5,8.2l-6.7-6.7c-1-1-2.7-0.3-2.7,1.1v15.7c-2.1,3.3-3.8,6.9-4.8,10.8h-8
			c-2.8,0-5.2,2.3-5.2,5.2v11.6c0,2.8,2.3,5.2,5.2,5.2h8.2c2.1,7,6,13.2,11.2,18v16.1H58v-10.5h31.7v10.5h11.1V106
			c7.9-7.3,12.8-17.7,12.9-29.3C113.7,54.7,96.1,37,74.1,36.8z"/>
	</g>
</g>
<g id="Research_01" class="st0">
	<g class="st1">
		<path class="st3" d="M69.5,61v21.9c-10,2.8-13.9,10.6-13.9,19.9c0,11.6,9.6,21,21.2,21s21-9.4,21-21c0-9.3-7.3-17.1-14.3-19.9V61"
			/>
		<line class="st3" x1="65" y1="59.5" x2="91" y2="59.5"/>
		<line class="st3" x1="111" y1="66.5" x2="137" y2="66.5"/>
		<g>
			<circle class="st2" cx="73.9" cy="51.1" r="3.3"/>
			<circle class="st2" cx="81.2" cy="43.7" r="2.5"/>
			<circle class="st2" cx="76" cy="37.4" r="2.2"/>
		</g>
		<circle class="st2" cx="125.6" cy="55" r="4"/>
		<circle class="st2" cx="119.6" cy="46.1" r="3"/>
		<line class="st2" x1="59.6" y1="96.4" x2="94.3" y2="96.4"/>
		<line class="st2" x1="118.3" y1="74.8" x2="127.7" y2="74.8"/>
		<path class="st3" d="M117,66.8v18.5l-18.5,32.1c-1.7,2.9,0.4,6.5,3.8,6.5h41.4c3.3,0,5.4-3.6,3.8-6.5l-18.5-32.1V66.8"/>
		<path class="st3" d="M56.1,71.1H44.4h-3.8H12.6v48.6c0,2.3,1.9,4.2,4.2,4.2h27.6c2.3,0,4.2-1.9,4.2-4.2V81.6l0,0L56.1,71.1z"/>
		<line class="st3" x1="17.2" y1="81.6" x2="22.7" y2="81.6"/>
		<line class="st3" x1="17.2" y1="86.8" x2="22.7" y2="86.8"/>
		<line class="st2" x1="14.8" y1="92" x2="46.4" y2="92"/>
		<line class="st2" x1="20.6" y1="69.6" x2="14.8" y2="58.4"/>
		<line class="st2" x1="31.7" y1="90.8" x2="22.3" y2="72.8"/>
	</g>
</g>
<g id="Retirement_Account" class="st0">
	<g class="st1">
		<path class="st3" d="M80.4,122.8c2.8,0,5.6-0.2,8.3-0.5c4.5-0.5,9-1.5,13.3-2.9c4-1.3,7.6-3.5,11.1-6c3.4-2.4,6.6-5.2,9.5-8.2
			c3.8-4.1,6.8-8.9,8.7-14.1c1.9-5.3,3.6-11.5,1.5-17c-0.4-1-0.9-1.9-1.4-2.7c-2.3-3.4-5.9-5.8-9.7-7.2s-7.1-1.9-11.2-2.2"/>
		<path class="st3" d="M80.3,122.8c-2.8,0-5.6-0.2-8.3-0.5c-4.5-0.5-9-1.5-13.3-2.9c-4-1.3-7.6-3.5-11.1-6c-3.4-2.4-6.6-5.2-9.5-8.2
			c-3.8-4.1-6.8-8.9-8.7-14.1c-1.9-5.3-3.6-11.5-1.5-17c0.4-1,0.9-1.9,1.4-2.7c2.3-3.4,5.9-5.8,9.7-7.2s6.9-1.9,11-2.2"/>
		<g>
			<g>
				<g>
					<path class="st3" d="M77.1,80.4c-4.3-1.2-6.3-4.7-6.3-7.1"/>
					<path class="st3" d="M83.9,66c4.3,1.2,6.1,4.7,6.1,7.4c0,2.7-2,5.8-6.1,7"/>
					<path class="st3" d="M77.1,53.3c-2.8,1-5,3.2-4.6,6.6c0.4,2.6,2.3,4.3,4.5,5.1"/>
					<path class="st3" d="M88.6,59.1c0,0-0.5-4.2-4.7-5.8"/>
					<line class="st3" x1="80.4" y1="48.9" x2="80.4" y2="84.3"/>
				</g>
			</g>
		</g>
		<path class="st3" d="M41.7,81.1c4.2,6.4,19.9,11.2,38.7,11.2s34.5-4.8,38.7-11.2"/>
		<path class="st2" d="M53.4,84.3c-0.5-2.8-0.7-5.8-0.7-8.9c0-21.7,12.3-39.2,27.6-39.2s27.6,17.6,27.6,39.2c0,3.1-0.2,6-0.7,8.9"/>
	</g>
</g>
<g id="Value" class="st0">
	<g class="st1">
		<rect x="19" y="60.1" class="st2" width="105.3" height="56.6"/>
		<polyline class="st3" points="27.5,56.3 27.5,51 132.8,51 132.8,107.6 127.7,107.6 		"/>
		<polyline class="st2" points="36.3,47.6 36.3,42.2 141.6,42.2 141.6,98.9 136.5,98.9 		"/>
		<g>
			<path class="st3" d="M91.6,85.9c-1.3-9.9-9.7-17.5-19.9-17.5c-10.2,0-18.6,7.6-19.9,17.5"/>
			<path class="st3" d="M51.8,91c1.3,9.9,9.7,17.5,19.9,17.5s18.6-7.6,19.9-17.5"/>
		</g>
		<path class="st2" d="M69.3,98.4c-3.1-0.9-4.6-3.4-4.6-5.1"/>
		<path class="st2" d="M74.3,87.9c3.1,0.9,4.4,3.4,4.4,5.4c0,2-1.5,4.2-4.4,5.1"/>
		<path class="st2" d="M69.3,78.7c-2,0.7-3.7,2.3-3.3,4.8c0.3,1.9,1.6,3.1,3.3,3.7"/>
		<path class="st2" d="M77.7,83c0,0-0.3-3-3.4-4.2"/>
		<line class="st3" x1="71.7" y1="75.6" x2="71.7" y2="101.2"/>
	</g>
</g>
<g id="Data_01" class="st0">
	<g class="st1">
		<path class="st2" d="M58,87.8c4.2,21.1,24,35.7,45.7,33.2c5-0.6,9.6-2,13.9-4.1"/>
		<path class="st2" d="M57.7,72.3c-0.5,2.8-0.7,5.6-0.6,8.5"/>
		<path class="st2" d="M76.8,44.1c-8.2,5.1-14.4,13-17.5,22.2"/>
		<path class="st2" d="M129.2,50.8c-8.7-9.2-21.6-14.4-35.1-12.8c-4.2,0.5-8.2,1.6-11.9,3.2"/>
		<path class="st2" d="M123.5,113.2c11.7-8.6,18.6-23.1,16.8-38.5c-0.8-7-3.3-13.4-7-18.8"/>
		<line class="st3" x1="120.5" y1="115.2" x2="99.1" y2="79.5"/>
		<line class="st3" x1="99.1" y1="79.5" x2="131.7" y2="52.9"/>
		<line class="st3" x1="99.1" y1="79.5" x2="57.4" y2="84.3"/>
		<line class="st3" x1="99.1" y1="79.5" x2="58.4" y2="69.4"/>
		<line class="st3" x1="98.9" y1="79.6" x2="79.3" y2="42.4"/>
		<path class="st6" d="M54.9,65.3c1.8-7.7-1.8-15.6-8.6-19.4c-0.1-0.1-0.2-0.1-0.3-0.2"/>
		<path class="st6" d="M22.4,70.2c2,3.5,5.2,6.3,9.3,7.7c8.5,3.1,17.8-0.8,21.8-8.6"/>
		<path class="st6" d="M40.9,43.9c-8.3-1.5-16.8,3.1-19.7,11.4c-1.4,3.9-1.4,8-0.1,11.6"/>
		<line class="st3" x1="43.6" y1="45.1" x2="37.7" y2="61.3"/>
		<line class="st3" x1="37.7" y1="61.3" x2="21.8" y2="68.7"/>
		<line class="st3" x1="37.7" y1="61.3" x2="54.3" y2="67.3"/>
	</g>
</g>
<g id="Savings_03" class="st0">
	<g class="st1">
		<circle class="st2" cx="85.7" cy="118.9" r="14.8"/>
		<path class="st3" d="M84,126.3c-2.3-0.6-3.4-2.5-3.4-3.8"/>
		<path class="st3" d="M87.6,118.6c2.3,0.7,3.3,2.5,3.3,4c0,1.5-1.1,3.1-3.3,3.7"/>
		<path class="st3" d="M84,111.8c-1.5,0.5-2.7,1.7-2.4,3.5c0.2,1.4,1.2,2.3,2.4,2.7"/>
		<path class="st3" d="M90.1,114.9c0,0-0.2-2.2-2.5-3.1"/>
		<line class="st2" x1="85.7" y1="109.5" x2="85.7" y2="128.4"/>
		<line class="st3" x1="73.8" y1="101.5" x2="73.8" y2="81.7"/>
		<line class="st3" x1="89.6" y1="96.7" x2="89.6" y2="68.1"/>
		<line class="st3" x1="81.7" y1="96.7" x2="81.7" y2="85.5"/>
		<line class="st3" x1="97.5" y1="100.7" x2="97.5" y2="86.3"/>
		<g>
			<path class="st2" d="M92.5,74.8c8.3,0,15.9,0,17.3,0c5.8,0,10.6-4.7,10.6-10.6s-4.7-10.6-10.6-10.6c-0.3,0-0.7,0-1,0
				C107.8,44.3,99.8,37,90.1,37c-8.8,0-16.2,6-18.3,14.1c-1.2-0.4-2.5-0.6-3.9-0.6c-6.7,0-12.2,5.4-12.2,12.2s5.4,12.2,12.2,12.2
				c1.8,0,10.2,0,19,0"/>
			<path class="st2" d="M82.3,35.1c-2.2-5.7-7.7-9.8-14.3-9.8c-7.1,0-13.1,4.8-14.8,11.4c-1-0.3-2.1-0.5-3.2-0.5
				c-5.4,0-9.8,4.4-9.8,9.8s4.4,9.8,9.8,9.8c0.7,0,2.4,0,4.7,0"/>
		</g>
	</g>
</g>
<g id="Future" class="st0">
	<g class="st1">
		<ellipse transform="matrix(0.9733 -0.2297 0.2297 0.9733 -15.9703 20.8002)" class="st2" cx="81.4" cy="79" rx="23.1" ry="23.1"/>
		<line class="st3" x1="73.9" y1="47.3" x2="69.8" y2="30.1"/>
		<line class="st3" x1="55.2" y1="59.5" x2="41.1" y2="48.9"/>
		<line class="st3" x1="48.8" y1="80.9" x2="31.2" y2="81.9"/>
		<line class="st3" x1="57.6" y1="101.3" x2="44.7" y2="113.5"/>
		<line class="st3" x1="77.5" y1="111.4" x2="75.5" y2="128.9"/>
		<line class="st3" x1="99.2" y1="106.2" x2="108.9" y2="121"/>
		<line class="st3" x1="112.6" y1="88.4" x2="129.5" y2="93.5"/>
		<line class="st3" x1="111.3" y1="66.1" x2="127.5" y2="59.1"/>
		<line class="st3" x1="96" y1="49.9" x2="104" y2="34.1"/>
	</g>
</g>
<g id="Specialty_Account" class="st0">
	<g class="st1">
		<polygon class="st3" points="42.9,119.4 117.4,119.4 107.5,71.3 76.9,71.3 69.7,57.8 45.1,57.8 41.9,70.5 30.6,70.5 		"/>
		<polyline class="st3" points="117.4,119.4 130,62.4 121.6,62.4 		"/>
		<path class="st2" d="M112.2,77.8c3.8-4.1,6.1-9.5,6.1-15.5c0-12.5-10.2-22.7-22.7-22.7c-11,0-20.1,7.8-22.3,18.1"/>
		<line class="st2" x1="84.2" y1="47.8" x2="95.5" y2="62.3"/>
		<line class="st2" x1="95.5" y1="62.3" x2="89.9" y2="68.6"/>
		<line class="st2" x1="95.5" y1="62.3" x2="114.2" y2="62.3"/>
	</g>
</g>
<g id="Support" class="st0">
	<g class="st1">
		<path class="st2" d="M42,90.4V72.5c0-18.8,17.3-34.2,38.3-34.2l0,0c21.1,0,38.3,15.4,38.3,34.2v17.9"/>
		<path class="st3" d="M107.5,104.4L107.5,104.4c-3.4,0-6.2-2.8-6.2-6.2V83.9c0.2-3.7,2.9-6.3,6.2-6.2l0,0c3.4,0,6.2,2.8,6.2,6.2
			v14.4C113.6,101.7,110.8,104.4,107.5,104.4z"/>
		<path class="st3" d="M53.2,104.4h-0.9c-3.1,0-5.7-2.6-5.7-5.7V83.5c0-3.1,2.6-5.7,5.7-5.7h0.9c3.1,0,5.7,2.6,5.7,5.7v15.3
			C58.9,101.9,56.3,104.4,53.2,104.4z"/>
		<circle class="st3" cx="87.8" cy="115.6" r="5.1"/>
		<polyline class="st2" points="96.4,115.6 108.6,115.6 108.6,108.7 		"/>
	</g>
</g>
<g id="Calculator" class="st0">
	<g class="st1">
		
			<ellipse transform="matrix(2.699990e-03 -1 1 2.699990e-03 -12.6919 136.5396)" class="st3" cx="62.1" cy="74.6" rx="6.2" ry="6.2"/>
		
			<ellipse transform="matrix(2.699990e-03 -1 1 2.699990e-03 5.4453 154.8255)" class="st3" cx="80.3" cy="74.7" rx="6.2" ry="6.2"/>
		
			<ellipse transform="matrix(2.699990e-03 -1 1 2.699990e-03 23.5845 173.1118)" class="st3" cx="98.6" cy="74.7" rx="6.2" ry="6.2"/>
		<ellipse transform="matrix(2.699990e-03 -1 1 2.699990e-03 -30.0868 153.793)" class="st3" cx="62.1" cy="92" rx="6.2" ry="6.2"/>
		
			<ellipse transform="matrix(2.699990e-03 -1 1 2.699990e-03 -11.9485 172.0801)" class="st3" cx="80.3" cy="92" rx="6.2" ry="6.2"/>
		
			<ellipse transform="matrix(2.699990e-03 -1 1 2.699990e-03 6.1896 190.3652)" class="st3" cx="98.5" cy="92.1" rx="6.2" ry="6.2"/>
		
			<ellipse transform="matrix(2.699990e-03 -1 1 2.699990e-03 -11.2064 207.6197)" class="st3" cx="98.5" cy="109.4" rx="6.2" ry="6.2"/>
		<path class="st2" d="M82.8,115.6l-23.3-0.1c-2,0-3.7-1.7-3.7-3.7l0-5c0-2,1.7-3.7,3.7-3.7l23.3,0.1c2,0,3.7,1.7,3.7,3.7l0,5
			C86.5,114,84.8,115.6,82.8,115.6z"/>
		
			<rect x="72.7" y="28.3" transform="matrix(2.699990e-03 -1 1 2.699990e-03 27.3855 133.0706)" class="st2" width="15.5" height="48.9"/>
		
			<rect x="34.4" y="46.2" transform="matrix(2.699990e-03 -1 1 2.699990e-03 0.6197 159.6186)" class="st2" width="91.8" height="66.7"/>
	</g>
</g>
<g id="Award" class="st0">
	<g class="st1">
		<path class="st3" d="M74.5,84.8v5.1c-8.5,2.5-14.7,10.4-14.7,19.7c0,11.3,9.2,20.6,20.6,20.6s20.6-9.2,20.6-20.6
			c0-9.3-6.2-17.2-14.7-19.7v-5.1"/>
		<polyline class="st2" points="99,28.8 99,69.5 86.2,79.8 74.5,79.8 61.6,69.5 61.6,28.8 		"/>
		<line class="st3" x1="74.5" y1="76" x2="74.5" y2="28.8"/>
		<line class="st3" x1="86.2" y1="76" x2="86.2" y2="28.8"/>
		<polygon class="st2" points="80.4,102.6 87.6,98.9 86.2,106.9 92,112.5 84,113.7 80.4,120.9 76.9,113.7 68.8,112.5 74.6,106.9 
			73.3,98.9 		"/>
	</g>
</g>
<g id="Tax" class="st0">
	<g class="st1">
		<line id="XMLID_42_" class="st2" x1="37" y1="75.9" x2="123.7" y2="75.9"/>
		<path id="XMLID_41_" class="st2" d="M100.8,71c2.7-4,4.3-8.8,4.3-13.9c0-13.7-11.1-24.8-24.8-24.8S55.6,43.3,55.6,57
			c0,5.1,1.6,9.9,4.2,13.9"/>
		<path id="XMLID_40_" class="st3" d="M77.4,69.4c-3.9-1.1-5.7-4.2-5.7-6.4"/>
		<path id="XMLID_39_" class="st3" d="M83.5,56.4c3.8,1.1,5.5,4.2,5.5,6.6c0,2.5-1.8,5.2-5.5,6.3"/>
		<path id="XMLID_38_" class="st3" d="M77.4,45c-2.5,0.9-4.5,2.9-4.1,5.9c0.3,2.3,2,3.8,4.1,4.5"/>
		<path id="XMLID_37_" class="st3" d="M87.7,50.3c0,0-0.4-3.8-4.2-5.2"/>
		<line id="XMLID_36_" class="st2" x1="80.3" y1="41.1" x2="80.3" y2="71"/>
		<g id="XMLID_30_">
			<polygon id="XMLID_33_" class="st3" points="80.3,107.6 82.3,111.7 86.8,112.3 83.6,115.5 84.3,120 80.3,117.8 76.3,120 
				77.1,115.5 73.8,112.3 78.3,111.7 			"/>
			<polygon id="XMLID_32_" class="st3" points="96.1,107.6 98.1,111.7 102.6,112.3 99.4,115.5 100.2,120 96.1,117.8 92.1,120 
				92.9,115.5 89.6,112.3 94.1,111.7 			"/>
			<polygon id="XMLID_31_" class="st3" points="64.5,107.6 66.5,111.7 71,112.3 67.8,115.5 68.5,120 64.5,117.8 60.5,120 
				61.3,115.5 58,112.3 62.5,111.7 			"/>
		</g>
		<polyline id="XMLID_29_" class="st2" points="108.9,80.9 108.9,126.8 51.7,126.8 51.7,80.9 		"/>
		<line id="XMLID_28_" class="st3" x1="66" y1="80.9" x2="66" y2="102.6"/>
		<line id="XMLID_27_" class="st3" x1="80.3" y1="80.9" x2="80.3" y2="102.6"/>
		<line id="XMLID_26_" class="st3" x1="94.6" y1="80.9" x2="94.6" y2="102.6"/>
	</g>
</g>
<g id="Data_02" class="st0">
	<g class="st1">
		<polyline class="st2" points="33.8,104.8 33.8,123.6 18.1,123.6 18.1,91.6 		"/>
		<polyline class="st2" points="18.1,88.6 18.1,73.7 33.8,73.7 33.8,101.3 		"/>
		<polyline class="st2" points="49.7,105.4 49.7,123.6 36.5,123.6 		"/>
		<polyline class="st2" points="34,70.7 34,53 49.7,53 49.7,102 		"/>
		<polyline class="st2" points="65.6,97.7 65.6,123.6 52.5,123.6 		"/>
		<polyline class="st2" points="52.3,73.7 65.6,73.7 65.6,94.4 		"/>
		<polyline class="st2" points="81.4,90 81.4,123.6 68.5,123.6 		"/>
		<polyline class="st2" points="65.7,70.8 65.7,43.3 81.4,43.3 81.4,85.8 		"/>
		<polyline class="st2" points="83.8,95.9 97.3,95.9 97.3,123.6 84.1,123.6 		"/>
		<polyline class="st2" points="113.2,74.2 113.2,123.6 99.7,123.6 		"/>
		<polyline class="st2" points="97.5,76 97.5,62.3 113.2,62.3 113.2,69.5 		"/>
		<line class="st2" x1="97.5" y1="93.5" x2="97.5" y2="80.1"/>
		<polyline class="st2" points="129,58.7 129,123.6 115.8,123.6 		"/>
		<polyline class="st2" points="113.3,59.7 113.3,43.3 129,43.3 129,54.3 		"/>
		<polyline class="st2" points="131.7,68.1 144.9,68.1 144.9,123.6 131.8,123.6 		"/>
		<polyline class="st3" points="142.6,42.8 107.5,78.1 91.6,78.1 73,96.2 57.2,96.2 42.1,111.3 21,90.1 10.1,90.1 		"/>
		<polyline class="st3" points="141.4,41.8 137.3,37.7 150.6,35.4 148.2,48.6 143.8,44.1 		"/>
	</g>
</g>
<g id="Education_Account" class="st0">
	<g class="st1">
		<path class="st3" d="M77,123.3c-4.5-1.3-6.7-4.9-6.7-7.4"/>
		<path class="st3" d="M84.2,108.2c4.5,1.3,6.4,4.9,6.4,7.8c0,2.9-2.1,6.1-6.4,7.3"/>
		<path class="st3" d="M77,94.9c-2.9,1-5.3,3.4-4.8,6.9c0.4,2.7,2.4,4.5,4.7,5.3"/>
		<path class="st3" d="M89.1,101c0,0-0.5-4.4-4.9-6.1"/>
		<line class="st3" x1="80.5" y1="90.3" x2="80.5" y2="127.4"/>
		<line class="st2" x1="80.5" y1="73.9" x2="80.5" y2="83.2"/>
		<path class="st3" d="M114.3,59.2c3.1-4.3,5-9.3,6.3-14.5c0.7-2.6,1.2-5.2,1.6-7.9c0.1-0.6,0.3-3.5,0-5.1c-1.6-0.4-4.4-0.1-5.1,0
			c-2.7,0.4-5.3,0.9-7.9,1.6c-5.1,1.3-10.2,3.3-14.5,6.3c-9.3,6.5-13.9,17.8-9,28.6C96.4,73.2,107.7,68.5,114.3,59.2z"/>
		<path class="st3" d="M99.6,53.6c0,0-5.4,4.8-10.4,11"/>
		<path class="st3" d="M46.4,59.2c-3-4.3-5-9.3-6.3-14.5c-0.7-2.6-1.2-5.2-1.6-7.9c-0.1-0.6-0.3-3.5,0-5.1c1.6-0.4,4.4-0.1,5.1,0
			c2.7,0.4,5.3,0.9,7.9,1.6c5.1,1.3,10.2,3.3,14.5,6.3c9.3,6.5,13.9,17.8,9,28.6C64.2,73.2,52.9,68.5,46.4,59.2z"/>
		<path class="st3" d="M61,53.6c0,0,5.4,4.8,10.4,11"/>
		<path class="st2" d="M76.3,83.1C60.9,84.6,47.9,94.5,42,108.2"/>
		<path class="st2" d="M118.9,108.1c-5.9-13.6-18.8-23.5-34.3-25"/>
		<line class="st2" x1="80.5" y1="74.3" x2="77.3" y2="71.2"/>
		<line class="st2" x1="80.5" y1="74.3" x2="83.6" y2="71.2"/>
	</g>
</g>
<g id="Research_x5F_01" class="st0">
	<g class="st1">
		<path class="st2" d="M116.4,87.2c10.1-11.8,9.5-29.5-1.6-40.6c-11.2-11.2-29-11.7-40.8-1.5"/>
		<path class="st3" d="M71.2,48C60.8,59.8,61.2,77.7,72.5,89c11.2,11.2,29,11.7,40.7,1.5"/>
		<polyline class="st2" points="69.9,95 43.8,121.1 37.1,114.4 63.2,88.3 		"/>
	</g>
</g>
<g id="Work" class="st0">
	<g class="st1">
		<polyline class="st2" points="63,104.2 51.8,104.2 51.8,36.7 108.8,36.7 108.8,104.2 97.8,104.2 		"/>
		<circle class="st3" cx="80.3" cy="64.5" r="17.4"/>
		<circle class="st3" cx="80.3" cy="64.5" r="3.2"/>
		<line class="st3" x1="80.3" y1="49.5" x2="80.3" y2="59.3"/>
		<line class="st3" x1="75" y1="64.5" x2="68.7" y2="64.5"/>
		<path class="st2" d="M62.7,97.2c-1.9,0-3.4-1.5-3.4-3.4l0,0c0-1.9,1.5-3.4,3.4-3.4h35.2c1.9,0,3.4,1.5,3.4,3.4l0,0
			c0,1.9-1.5,3.4-3.4,3.4"/>
		<polyline class="st2" points="95.9,92.7 95.9,128.3 64.7,128.3 64.7,92.7 		"/>
		<circle class="st3" cx="80.3" cy="103.9" r="5.9"/>
		<path class="st3" d="M90.3,122.5c0-5.5-4.5-9.9-9.9-9.9s-9.9,4.5-9.9,9.9"/>
		<polyline class="st2" points="56.5,34.3 56.5,30.7 104.1,30.7 104.1,34.3 		"/>
	</g>
</g>
<g id="Recreation" class="st0">
	<g class="st1">
		<line class="st2" x1="50.8" y1="123.4" x2="96.6" y2="123.4"/>
		<line class="st2" x1="73.7" y1="94" x2="73.7" y2="120.4"/>
		<path class="st2" d="M79.1,89H68.3c-14.3,0-26-11.7-26-26v-9.9h62.8V63C105.1,77.3,93.4,89,79.1,89z"/>
		<line class="st2" x1="48.9" y1="65.7" x2="98.6" y2="65.7"/>
		<path class="st3" d="M108.3,70c7.6-2.1,13.2-9.1,12.9-17.4c-0.3-9.7-8.3-17.3-18-17C94.9,35.9,88,42,86.5,49.9"/>
		<path class="st3" d="M86.6,56.4c0.4,2.3,1.3,4.4,2.6,6.3"/>
		<line class="st3" x1="48.3" y1="49.2" x2="39.4" y2="37.4"/>
		<line class="st3" x1="58.1" y1="62.4" x2="53.7" y2="56.4"/>
		<line class="st3" x1="74.6" y1="84.8" x2="63" y2="69"/>
	</g>
</g>
<g id="Forex_Globe" class="st0">
	<g class="st1">
		<circle class="st3" cx="86.9" cy="64.1" r="33.5"/>
		<path class="st2" d="M53.1,32c-7.9,8.4-12.8,19.7-12.8,32.1c0,25.8,20.9,46.7,46.7,46.7c12.4,0,23.7-4.8,32.1-12.7"/>
		<line class="st7" x1="112.5" y1="91.1" x2="119.2" y2="97.8"/>
		<line class="st7" x1="53.1" y1="32" x2="60.5" y2="39.4"/>
		<line class="st2" x1="86.5" y1="115.1" x2="86.5" y2="124.1"/>
		<line class="st2" x1="105.4" y1="128.4" x2="67.7" y2="128.4"/>
		<polyline class="st3" points="77.7,35.2 77.7,40.6 86.5,46.4 86.5,81.9 90.1,84.7 99.3,84.7 107.7,75.7 114.5,75.7 		"/>
		<g>
			<g>
				<path class="st2" d="M82.8,78.3c-4.6-1.3-6.8-5-6.8-7.6"/>
				<path class="st2" d="M90.1,62.9c4.5,1.3,6.5,5,6.5,7.9c0,2.9-2.1,6.2-6.5,7.5"/>
				<path class="st2" d="M82.8,49.4c-3,1-5.4,3.4-4.9,7.1c0.4,2.8,2.4,4.6,4.8,5.4"/>
				<path class="st2" d="M95.1,55.6c0,0-0.5-4.5-5-6.2"/>
			</g>
		</g>
	</g>
</g>
<g id="Heat_Map" class="st0">
	<g class="st1">
		<rect x="33.8" y="44.7" class="st8" width="93" height="69.6"/>
		<line class="st9" x1="103.6" y1="47.3" x2="103.6" y2="88.8"/>
		<line class="st8" x1="80.3" y1="47.3" x2="80.3" y2="111.9"/>
		<line class="st9" x1="83.4" y1="68" x2="123.8" y2="68"/>
		<line class="st8" x1="83.4" y1="91.2" x2="123.8" y2="91.2"/>
		<line class="st8" x1="36.9" y1="91.2" x2="77.3" y2="91.2"/>
		<line class="st9" x1="115.1" y1="93.7" x2="115.1" y2="111.9"/>
		<line class="st9" x1="103.6" y1="93.7" x2="103.6" y2="111.9"/>
		<line class="st9" x1="57.1" y1="93.7" x2="57.1" y2="111.9"/>
		<line class="st9" x1="105.9" y1="102.8" x2="124.2" y2="102.8"/>
		<line class="st9" x1="92.2" y1="93.7" x2="92.2" y2="111.9"/>
		<line class="st9" x1="83.1" y1="102.8" x2="101.3" y2="102.8"/>
	</g>
</g>
<g id="Live_Streaming" class="st0">
	<g class="st1">
		<rect x="29.1" y="38.4" class="st10" width="102.5" height="65.2"/>
		<circle class="st4" cx="57.3" cy="114" r="6.6"/>
		<line class="st10" x1="29.1" y1="114" x2="46" y2="114"/>
		<line class="st10" x1="68" y1="114" x2="131.6" y2="114"/>
		<circle class="st4" cx="80.3" cy="70.5" r="20.5"/>
		<path class="st4" d="M76.5,60.9l14,8.1c1.2,0.7,1.2,2.4,0,3.1l-14,8.1c-1.2,0.7-2.6-0.2-2.6-1.5V62.4
			C73.9,61.1,75.3,60.2,76.5,60.9z"/>
	</g>
</g>
<g id="Community" class="st0">
	<g class="st1">
		<circle class="st10" cx="43.8" cy="65.2" r="14.9"/>
		<path class="st10" d="M18.2,108.7v-8.6c0-7.9,6.4-14.3,14.3-14.3H56c7.9,0,14.3,6.4,14.3,14.3v8.6"/>
		<circle class="st4" cx="79.8" cy="65.2" r="14.9"/>
		<path class="st4" d="M68.6,85.8h23.5c7.9,0,14.3,6.4,14.3,14.3v8.6"/>
		<circle class="st10" cx="115.9" cy="65.2" r="14.9"/>
		<path class="st10" d="M104.6,85.8h23.5c7.9,0,14.3,6.4,14.3,14.3v8.6"/>
	</g>
</g>
<g id="Layer_01" class="st0">
	<g class="st1">
		<rect id="XMLID_24_" x="20.7" y="60.6" class="st10" width="102.5" height="55.1"/>
		<polyline id="XMLID_23_" class="st4" points="28.9,57 28.9,51.8 131.4,51.8 131.4,106.9 126.4,106.9 		"/>
		<polyline id="XMLID_22_" class="st10" points="37.5,48.4 37.5,43.2 140,43.2 140,98.4 135,98.4 		"/>
		<rect id="XMLID_21_" x="31.6" y="71.2" class="st4" width="24.1" height="22.4"/>
		<line id="XMLID_20_" class="st4" x1="66.8" y1="71.7" x2="110.9" y2="71.7"/>
		<line id="XMLID_19_" class="st4" x1="66.8" y1="82.7" x2="110.9" y2="82.7"/>
		<line id="XMLID_4_" class="st4" x1="66.8" y1="93.7" x2="110.9" y2="93.7"/>
		<line id="XMLID_2_" class="st4" x1="66.8" y1="104.7" x2="88.7" y2="104.7"/>
	</g>
</g>
<g id="Alerts_1_" class="st0">
	<g class="st1">
		<polyline class="st10" points="127.2,106.5 29.5,106.5 29.5,38.6 131.1,38.6 131.1,106.5 123.6,106.5 		"/>
		<line class="st10" x1="127.2" y1="93.3" x2="33.5" y2="93.3"/>
		<g>
			<polyline class="st2" points="90.3,120.4 58.6,120.4 69.2,106.5 			"/>
			<polyline class="st2" points="70.3,120.4 102,120.4 91.4,106.5 			"/>
		</g>
		<path class="st4" d="M90.8,69.6v-6.9c0,0-0.7-8.1-8.5-9.6c-0.4-0.1-0.9-0.2-1.5-0.2c-0.2,0-0.3,0-0.5,0c-0.2,0-0.3,0-0.5,0
			c-0.6,0-1.1,0.1-1.5,0.2c-7.8,1.5-8.5,9.6-8.5,9.6v6.9l-3.2,3.8v4.1h13.2h1H94v-4.1L90.8,69.6z"/>
		<path class="st4" d="M84.1,79.5c0,2.1-1.7,3.8-3.8,3.8s-3.8-1.7-3.8-3.8"/>
	</g>
</g>
<g id="Stock_Hacker" class="st0">
	<g class="st1">
		<circle class="st3" cx="80.7" cy="79.5" r="7.3"/>
		<circle class="st3" cx="51.9" cy="108.3" r="7.3"/>
		<path class="st2" d="M67.3,61.1c-5.7,4.1-9.4,10.9-9.4,18.4c0,5,1.6,9.6,4.3,13.4"/>
		<path class="st2" d="M97.1,95.3c3.9-4.1,6.4-9.7,6.4-15.8c0-12.6-10.2-22.8-22.8-22.8"/>
		<path class="st7" d="M67.4,98c3.8,2.7,8.4,4.3,13.4,4.3c0.5,0,0.9,0,1.4,0"/>
		<path class="st2" d="M40.5,84.7c0.7,5.3,2.3,10.2,4.8,14.6"/>
		<path class="st2" d="M117.7,62.7c-6.4-14-20.5-23.7-36.9-23.7c-18.6,0-34.2,12.5-39,29.5"/>
		<path class="st2" d="M60.8,114.8c5.9,3.3,12.7,5.2,19.9,5.2c22.4,0,40.6-18.2,40.6-40.6"/>
		<line class="st3" x1="75.6" y1="84.7" x2="57" y2="103.2"/>
		<polygon class="st3" points="35.4,80.9 40.6,71.8 45.9,80.9 		"/>
		<polygon class="st3" points="114.8,75.1 120,66 125.3,75.1 		"/>
		<polygon class="st3" points="77.9,54.4 72.6,63.5 67.3,54.4 		"/>
		<polygon class="st3" points="86.3,103.2 91.6,94.1 96.8,103.2 		"/>
	</g>
</g>
<g id="Research_x5F_03" class="st0">
	<g class="st1">
		<line class="st3" x1="91" y1="60.5" x2="121" y2="60.5"/>
		<circle class="st11" cx="108.2" cy="47.3" r="4.5"/>
		<circle class="st11" cx="101.4" cy="37.2" r="3.4"/>
		<line class="st11" x1="99.5" y1="69.6" x2="110.2" y2="69.6"/>
		<path class="st12" d="M98.1,60.6v21l-21,36.3c-1.9,3.3,0.5,7.4,4.3,7.4h46.9c3.8,0,6.1-4.1,4.3-7.4l-21-36.3v-21"/>
		<path class="st12" d="M76.7,65.5H63.4h-4.3H27.4v55.1c0,2.6,2.1,4.7,4.7,4.7h31.3c2.6,0,4.7-2.1,4.7-4.7V77.3l0,0L76.7,65.5z"/>
		<line class="st12" x1="32.6" y1="77.4" x2="38.8" y2="77.4"/>
		<line class="st12" x1="32.6" y1="83.2" x2="38.8" y2="83.2"/>
		<line class="st11" x1="29.8" y1="89.1" x2="65.7" y2="89.1"/>
		<line class="st11" x1="36.5" y1="63.7" x2="29.8" y2="51.1"/>
		<line class="st11" x1="49.1" y1="87.8" x2="38.3" y2="67.4"/>
	</g>
</g>
<g id="Form_Library" class="st0">
	<g class="st1">
		
			<rect x="33.5" y="50.5" transform="matrix(2.699990e-03 -1 1 2.699990e-03 -9.919 159.1555)" class="st2" width="82.8" height="68.1"/>
		<polyline class="st3" points="119.8,115.9 120,33.2 51.9,33 		"/>
		<g>
			<path class="st3" d="M92.3,65H56.6c-2.7,0-4.9-2.2-4.9-4.9l0,0c0-2.7,2.2-4.9,4.9-4.9h35.7c2.7,0,4.9,2.2,4.9,4.9l0,0
				C97.2,62.8,95,65,92.3,65z"/>
			<path class="st3" d="M92.3,82.1H56.6c-2.7,0-4.9-2.2-4.9-4.9l0,0c0-2.7,2.2-4.9,4.9-4.9h35.7c2.7,0,4.9,2.2,4.9,4.9l0,0
				C97.2,79.9,95,82.1,92.3,82.1z"/>
			<g>
				<circle class="st3" cx="56.6" cy="94.3" r="4.9"/>
				<circle class="st3" cx="69.7" cy="94.3" r="4.9"/>
			</g>
		</g>
		<line class="st3" x1="51.9" y1="33" x2="51.9" y2="37.1"/>
		<line class="st3" x1="119.8" y1="115.9" x2="114.2" y2="115.9"/>
	</g>
</g>
<g id="Visit_Us_2_" class="st0">
	<g id="Visit_Us_1_" class="st1">
		<g>
			<g>
				<path class="st2" d="M80.8,37.8c-0.2,0-0.3,0-0.5,0c-0.1,0-0.3,0-0.5,0c-15.5,0-28,12.7-28,28s28.5,48.7,28.5,48.7
					s28.5-33.5,28.5-48.7C108.8,50.5,96.3,37.8,80.8,37.8z"/>
			</g>
			<g>
				<path class="st3" d="M78.4,74.5c-5.3-0.9-9.4-5.6-9.4-11.2s4.1-10.3,9.4-11.2 M82.3,52.1c5.3,0.9,9.4,5.6,9.4,11.2
					s-4.1,10.2-9.4,11.2"/>
			</g>
			<line class="st3" x1="47" y1="121.2" x2="113.7" y2="121.2"/>
		</g>
	</g>
</g>
<g id="Founder_x27_s_Club" class="st0">
	<g class="st1">
		<path class="st2" d="M123.5,62.7v32.7c0,1.8-0.9,3.4-2.3,4.4l-37.9,25.4c-1.8,1.2-4.1,1.2-5.9,0L39.5,99.8c-1.5-1-2.3-2.7-2.3-4.4
			V62.7"/>
		<path class="st2" d="M37.1,56.5V38.3c0-2.9,2.4-5.3,5.3-5.3h75.8c2.9,0,5.3,2.4,5.3,5.3v18.2"/>
		<g>
			<path class="st13" d="M51.7,74.1v4.4h2.2v1.1h-2.2v6.3h-1.2v-13h4.3v1.1H51.7z"/>
			<path class="st13" d="M59.4,86.2c-2,0-2.7-2.3-2.7-6.7c0-4.4,0.7-6.7,2.7-6.7s2.7,2.3,2.7,6.7C62.1,83.9,61.3,86.2,59.4,86.2z
				 M59.3,73.9c-1,0-1.5,1.7-1.5,5.6c0,3.9,0.5,5.6,1.5,5.6s1.5-1.7,1.5-5.6C60.8,75.6,60.3,73.9,59.3,73.9z"/>
			<path class="st13" d="M67.2,86.2c-1.6,0-2.5-1.2-2.5-3.2v-10h1.2v10c0,1.3,0.5,2.1,1.4,2.1c0.8,0,1.4-0.8,1.4-2.1v-10h1.1v10
				C69.8,84.9,68.8,86.2,67.2,86.2z"/>
			<path class="st13" d="M76.9,86l-2-6.1c-0.5-1.4-0.9-2.9-1.1-4c0,0.8,0.1,2.1,0.1,3.4V86h-1.1v-13h1.2l1.8,5.5
				c0.5,1.4,0.9,2.9,1.1,4c0-0.8-0.1-2.1-0.1-3.4v-6.1h1.1v13L76.9,86L76.9,86z"/>
			<path class="st13" d="M82.5,86h-1.8v-13h2c2.4,0,3,2.4,3,6.4C85.7,83.8,84.7,86,82.5,86z M82.6,74.1h-0.7v10.8h0.7
				c1.2,0,1.9-1.5,1.9-5.4C84.5,75.7,83.8,74.1,82.6,74.1z"/>
			<path class="st13" d="M88.3,86v-13h4.2v1.1h-3v4.4h2.1v1.1h-2.1v5.2h3.2V86L88.3,86L88.3,86z"/>
			<path class="st13" d="M98.6,86l-1.5-6.1c-0.3,0.1-0.6,0.1-1,0.1V86h-1.2V72.9h1.9c1.7,0,2.9,1.1,2.9,3.4c0,1.5-0.6,2.5-1.4,3.1
				l1.5,6.6L98.6,86L98.6,86z M96.8,74.1h-0.6v4.7h0.6c1.1,0,1.7-0.8,1.7-2.4C98.5,74.9,97.9,74.1,96.8,74.1z"/>
			<path class="st13" d="M102.7,76H102l0.2-3.1h1.3L102.7,76z"/>
			<path class="st13" d="M107.7,86.2c-1.5,0-2.2-1.1-2.5-3.1l1.2-0.3c0.3,1.7,0.7,2.2,1.3,2.2c0.8,0,1.2-0.6,1.2-1.6
				c0-1.2-0.5-2.5-1.8-3.9c-1.4-1.6-1.8-2.5-1.8-4.2c0-1.5,0.8-2.7,2.2-2.7c1.5,0,2.1,1,2.4,2.5l-1.2,0.4c-0.4-1.4-0.7-1.8-1.3-1.8
				c-0.7,0-1,0.7-1,1.4c0,1,0.3,1.9,1.5,3.2c1.4,1.6,2.1,3,2.1,4.8C110.1,85,109.2,86.2,107.7,86.2z"/>
			<path class="st13" d="M69.6,104.1c-1.9,0-2.5-2.3-2.5-6.7c0-4.3,0.7-6.7,2.6-6.7c1.5,0,2.1,1.2,2.5,3.2l-1.2,0.3
				c-0.4-1.9-0.7-2.4-1.3-2.4c-0.9,0-1.4,1.8-1.4,5.6c0,3.9,0.4,5.6,1.4,5.6c0.7,0,1-0.7,1.3-2.3l1.1,0.3
				C71.8,102.8,71.2,104.1,69.6,104.1z"/>
			<path class="st13" d="M74.5,103.9v-13h1.2v11.9h2.8v1.1L74.5,103.9L74.5,103.9z"/>
			<path class="st13" d="M83,104.1c-1.6,0-2.5-1.2-2.5-3.2v-10h1.2v10c0,1.3,0.5,2.1,1.4,2.1c0.8,0,1.4-0.8,1.4-2.1v-10h1.2v10
				C85.7,102.8,84.6,104.1,83,104.1z"/>
			<path class="st13" d="M90.4,103.9h-1.9v-13h1.8c1.9,0,2.9,1.3,2.9,3.3c0,1.7-0.6,2.4-1.4,2.9c0.9,0.5,1.6,1.2,1.6,3.1
				C93.3,102.8,92,103.9,90.4,103.9z M90.3,92h-0.6v4.5h0.6c1.2,0,1.7-1,1.7-2.2C91.9,92.7,91.3,92,90.3,92z M90.2,97.6h-0.5v5.1
				h0.7c1.1,0,1.7-0.8,1.7-2.5C92.2,98.5,91.4,97.6,90.2,97.6z"/>
		</g>
		<g>
			<polygon class="st9" points="53.8,40.6 55.8,44.5 60.1,45.1 57,48.2 57.7,52.6 53.8,50.5 49.9,52.6 50.7,48.2 47.5,45.1 
				51.9,44.5 			"/>
			<polygon class="st9" points="80.3,40.6 82.3,44.5 86.6,45.1 83.5,48.2 84.2,52.6 80.3,50.5 76.4,52.6 77.1,48.2 74,45.1 
				78.4,44.5 			"/>
			<polygon class="st9" points="106.8,40.6 108.8,44.5 113.1,45.1 110,48.2 110.7,52.6 106.8,50.5 102.9,52.6 103.6,48.2 
				100.5,45.1 104.9,44.5 			"/>
		</g>
		<line class="st2" x1="37.1" y1="59.5" x2="123.6" y2="59.5"/>
	</g>
</g>
<g id="Newbie" class="st0">
	<g class="st1">
		<path class="st2" d="M119.2,98.4v3.5l-34.3,19.8c-2.8,1.6-6.2,1.6-9.1,0l-34.3-19.8v-3.5"/>
		<path class="st2" d="M41.5,60.9v-3.8l34.3-19.8c2.8-1.6,6.2-1.6,9.1,0l34.3,19.8v3.8"/>
		<rect x="33.6" y="65.7" class="st2" width="93.5" height="27.7"/>
		<circle class="st9" cx="80.4" cy="47" r="4.3"/>
		<path class="st9" d="M72.9,60.8v-2.4c0-2.2,1.8-4.1,4.1-4.1h6.7c2.2,0,4.1,1.8,4.1,4.1v2.4"/>
		<g>
			<polygon class="st9" points="80.4,98.9 82.6,103.5 87.7,104.2 84,107.8 84.9,112.9 80.4,110.5 75.8,112.9 76.7,107.8 73,104.2 
				78.1,103.5 			"/>
		</g>
		<g>
			<path class="st13" d="M54.6,84c0.1,1.4,0.4,1.8,1,2.1c0.1,0.1,0.2,0.1,0.2,0.1s0,0,0-0.1c1.2-2.8,4-8,5.3-10.2
				c1-1.7,0.9-2.5,0.6-3c0-0.1-0.1-0.2-0.2-0.2c0,0,0,0.1-0.1,0.1c-1.5,2.4-4,6.9-5.5,10.3l-0.3,0.7l0-0.8c0.2-3.4,0.4-5.9,0.7-7.8
				c0.2-1.4,0-2-0.7-2.5c0-0.1-0.1-0.1-0.2-0.1s-0.1,0.1-0.2,0.2c-1.5,2.6-4.5,7.9-5.6,10.9c-0.4,1.1-0.2,1.9,0.1,2.2
				c0,0.1,0,0.1,0,0.1s0-0.1,0-0.1l0,0c0.8-2.6,3-6.5,4.7-9.4L55,76l-0.1,0.7C54.6,79.8,54.5,82.6,54.6,84z"/>
			<path class="st13" d="M71.6,73.9C71.6,73.9,71.6,73.9,71.6,73.9c-0.2-0.8-0.7-1.1-1.5-1c-0.4,0-1.1,0.1-1.8,0.2
				c-1.1,0.2-2.4,0.4-3.5,0.3c-0.1,0-0.1,0-0.1,0s0,0.1,0,0.1c0.2,0.5,0.4,0.8,0.8,1l0.2,0.1l-0.1,0.2c-1.6,2.6-3.9,6.6-4.9,9.4
				c-0.2,0.6-0.2,0.8,0,1.1c0,0.1,0.1,0.2,0.2,0.2c0.1,0.2,0.2,0.4,0.3,0.5c0.2,0.2,0.4,0.2,0.7,0.2c0.8-0.2,3.4-0.9,4.8-0.8
				c0.1,0,0.1,0,0.1,0s0-0.1-0.1-0.1c-0.2-0.6-0.7-0.9-1.7-0.8c-0.8,0.1-2.2,0.3-3.3,0.6l-0.3,0.1l0.2-0.3c0.4-0.9,1-2.1,1.6-3.4
				l0-0.1h0c0.5-0.2,2.5-0.6,4-0.6c0.1,0,0.1,0,0.1,0s0-0.1-0.1-0.1c-0.2-0.5-0.4-0.9-1.6-0.8c-0.5,0.1-1,0.1-1.5,0.2L63.8,80
				l0.2-0.2c1-1.8,2.1-3.8,3-5.1l0.1-0.1h0.1c0.3-0.1,0.6-0.1,1-0.2c1-0.2,2.2-0.4,3.4-0.4C71.6,73.9,71.6,73.9,71.6,73.9L71.6,73.9
				z"/>
			<path class="st13" d="M77.1,86.1c0.1,0.1,0.2,0.1,0.2,0.1s0.2-0.1,0.2-0.2c2.1-3.2,4.6-6.5,6.3-8.7c0.4-0.5,0.8-1,1.1-1.4
				c1-1.3,1.3-2.2,1.2-3c0-0.1-0.1-0.2-0.1-0.2s-0.1,0-0.2,0.2c-1.9,2-6,7.5-8.2,11.1l-0.5,0.8l0.2-0.9c0.8-3,1.6-5.5,2.3-7.6
				l0.1-0.2c0.5-1.6,0.4-2.1,0-2.7c-0.1-0.1-0.1-0.1-0.2-0.1s-0.1,0.1-0.2,0.1c-2.1,2.5-5.5,7.1-7.5,10.5l-0.6,0.9l0.3-1.1
				c0.8-2.7,1.7-5.3,2.4-7.1l0.2-0.6c0.6-1.7,0.5-2.4,0.2-2.9c-0.2-0.1-0.2-0.1-0.2-0.1l0,0c-0.1,0-0.1,0.1-0.2,0.2
				c-1.1,2-2.8,7-3.6,10.2c-0.3,1.4-0.2,2.2,0.5,2.8c0.1,0.1,0.2,0.1,0.2,0.1s0.2-0.1,0.2-0.2c2-3.1,4.5-6.7,6.3-9l0.5-0.7l-0.3,0.8
				c-0.8,2.2-1.5,4.5-1.8,6C76.2,84.8,76.5,85.5,77.1,86.1z"/>
			<path class="st13" d="M94.4,77.7c0.8-1,1-2.2,0.7-3.5c-0.3-1.2-1.1-1.7-2.4-1.6c-0.7,0.1-1.6,0.3-2.4,0.6
				c-0.8,0.3-1.7,0.6-2.5,0.6c-0.1,0-0.2,0.1-0.2,0.1s0,0.1,0.1,0.2l0,0c0.1,0.1,0.3,0.7,1.3,0.8h0.2l-0.2,0.2
				c-1.6,2.4-3.2,5.6-4.1,7.9c-0.5,1.3-0.3,1.6,0.1,2c0.3,0.4,0.6,0.7,1,0.9c0.4,0.2,0.9,0.2,1.7,0.1c1.1-0.2,2.7-0.9,3.7-1.9
				c0.8-0.9,0.9-2.1,0.5-2.8c-0.2-0.4-0.6-0.7-1-0.8l-0.3-0.2l0.3-0.2C92.9,79.4,94,78.2,94.4,77.7z M91.5,81.4
				c0.2,0.4,0.1,0.9-0.4,1.5c-1,1.2-2.9,2.1-4.2,2.2c-0.1,0-0.2,0-0.2,0c-0.2,0-0.4-0.1-0.5-0.2c-0.2-0.2-0.2-0.5-0.1-0.9
				c0.3-1.2,0.9-2.4,1.4-3.3l0.1-0.2l0.2,0.1c0.3,0.2,0.7,0.2,1.2,0.2c0.3-0.1,0.6-0.1,0.9-0.2l0,0l0,0C90.7,80.7,91.3,81,91.5,81.4
				z M88.1,79.9L87.8,80l0.2-0.3c0.2-0.5,0.5-0.9,0.8-1.3c0.3-0.5,0.6-1.1,0.9-1.5c0.4-0.8,0.7-1.5,0.6-2v-0.1l0.1-0.1
				c0.2-0.1,0.5-0.2,0.7-0.2c1.4-0.5,3-1.1,3.5,0l0,0c0.2,0.4,0.1,1-0.2,1.5C93.6,77.4,91.4,79.2,88.1,79.9z"/>
			<path class="st13" d="M101,72.6L101,72.6c0,0-0.1,0.1-0.2,0.2c-1.7,2.5-4.8,8.1-5.8,11c-0.5,1.4-0.1,2.1,0.1,2.2
				c0.1,0.1,0.1,0.1,0.1,0.1s0-0.1,0.1-0.1c1.5-3.5,3.9-7.6,5.2-10l0.1-0.1c0.9-1.7,0.9-2.6,0.6-3.1C101.1,72.7,101,72.6,101,72.6z"
				/>
			<path class="st13" d="M111.1,73.9c-0.2-0.7-0.7-1-1.5-0.9c-0.4,0-1.1,0.1-1.8,0.2c-1.1,0.2-2.4,0.4-3.5,0.3c-0.1,0-0.1,0-0.1,0
				s0,0.1,0,0.1c0.2,0.5,0.4,0.8,0.8,1l0.2,0.1l-0.1,0.2c-1.6,2.6-3.9,6.6-4.9,9.4c-0.2,0.6-0.2,0.8-0.1,1.1
				c0.1,0.1,0.1,0.2,0.2,0.2c0.1,0.2,0.2,0.4,0.3,0.5c0.2,0.2,0.3,0.2,0.7,0.2c0.8-0.2,3.4-0.9,4.8-0.8c0.1,0,0.1,0,0.1,0
				s0-0.1-0.1-0.1c-0.2-0.6-0.7-0.9-1.7-0.8c-0.8,0.1-2.2,0.3-3.3,0.6l-0.3,0.1l0.2-0.3c0.4-0.9,1-2.1,1.6-3.4l0.1-0.1h0.1
				c0.5-0.2,2.5-0.6,4-0.6c0.1,0,0.1,0,0.1,0s0-0.1-0.1-0.1c-0.2-0.5-0.4-0.9-1.6-0.8c-0.5,0.1-1,0.1-1.5,0.2l-0.3,0.1l0.2-0.2
				c1-1.8,2.1-3.8,3-5.1l0.1-0.1h0.1c0.3-0.1,0.6-0.1,1-0.2c1-0.2,2.2-0.4,3.4-0.4c0.1,0,0.1,0,0.1,0
				C111.1,73.9,111.1,73.9,111.1,73.9z"/>
		</g>
	</g>
</g>
<g id="Documents" class="st0">
	<g class="st1">
		<polyline class="st3" points="52.8,41.1 52.8,34.6 118.3,34.6 118.3,115 110.5,115 		"/>
		<g>
			<rect id="XMLID_35_" x="48.7" y="54.2" class="st2" width="16.2" height="15"/>
			<line id="XMLID_34_" class="st4" x1="72.4" y1="54.5" x2="102.1" y2="54.5"/>
			<line id="XMLID_25_" class="st4" x1="72.4" y1="62" x2="102.1" y2="62"/>
			<line id="XMLID_43_" class="st4" x1="72.4" y1="69.4" x2="102.1" y2="69.4"/>
			<line id="XMLID_45_" class="st4" x1="48.5" y1="76.9" x2="102.1" y2="76.9"/>
			<line id="XMLID_44_" class="st4" x1="48.5" y1="84.4" x2="102.1" y2="84.4"/>
			<line id="XMLID_47_" class="st4" x1="48.5" y1="91.9" x2="102.1" y2="91.9"/>
			<line id="XMLID_46_" class="st4" x1="48.5" y1="99.3" x2="102.1" y2="99.3"/>
			<line id="XMLID_49_" class="st4" x1="48.5" y1="106.8" x2="102.1" y2="106.8"/>
			<line id="XMLID_48_" class="st4" x1="48.5" y1="114.2" x2="102.1" y2="114.2"/>
		</g>
		<rect x="42.3" y="44" class="st2" width="65.5" height="80.4"/>
	</g>
</g>
<g id="Currency" class="st0">
	<g class="st1">
		<line class="st7" x1="91" y1="102.1" x2="91" y2="121.4"/>
		<line class="st7" x1="91" y1="77.9" x2="91" y2="97.5"/>
		<line class="st7" x1="91" y1="53.5" x2="91" y2="73.4"/>
		<line class="st7" x1="91" y1="37.6" x2="91" y2="49"/>
		<path class="st7" d="M71.4,39c6-2.9,12.6-4.5,19.7-4.5c24.9,0,45.1,20.2,45.1,45s-20.2,45.1-45.1,45.1c-5.7,0-11.1-1.1-16.2-3"/>
		<path class="st7" d="M47.5,67.9c0.3-1.2,0.7-2.3,1.1-3.4"/>
		<path class="st7" d="M50,98.2c-0.5-1.2-1.1-2.4-1.5-3.7"/>
		<g>
			<path class="st4" d="M75.6,45.4c1.5-2.5,3.3-4.7,5.1-6.4"/>
			<path class="st4" d="M67.4,76.9c0-2.2,0.2-4.4,0.4-6.5"/>
			<path class="st4" d="M68.3,91.9c-0.5-3.4-0.8-6.9-0.9-10.5"/>
			<path class="st4" d="M80.7,120c-1.2-1.1-2.3-2.4-3.3-3.7"/>
			<path class="st4" d="M110.7,104.4c-2.3,6.7-5.6,12.1-9.4,15.6"/>
			<path class="st4" d="M114.7,81.5c-0.1,6.7-1.1,13-2.6,18.6"/>
			<path class="st4" d="M111.3,56.3c1.9,6.1,3.1,13.1,3.4,20.6"/>
			<path class="st4" d="M101.4,39c3.2,2.9,6,7.2,8.1,12.4"/>
		</g>
		<path class="st7" d="M77.7,100.8c4.2-0.7,8.7-1.1,13.4-1.1c12.4,0,23.6,2.6,31.8,6.9"/>
		<path class="st7" d="M58,83.2c8.2-4.7,20-7.6,33-7.6c18,0,33.5,5.5,40.7,13.5"/>
		<path class="st7" d="M77.8,52.4c4.2-0.7,8.6-1.1,13.3-1.1c16.1,0,30.2,4.4,38.2,11.1"/>
		<circle class="st7" cx="59.7" cy="53.7" r="15.5"/>
		<g>
			<path class="st4" d="M57.7,62.4c-2.7-0.8-4-2.9-4-4.4"/>
			<path class="st4" d="M61.9,53.3c2.7,0.8,3.8,2.9,3.8,4.7s-1.2,3.7-3.8,4.4"/>
			<path class="st4" d="M57.7,45.4c-1.8,0.6-3.2,2-2.9,4.1c0.2,1.6,1.4,2.7,2.8,3.2"/>
			<path class="st4" d="M64.9,49c0,0-0.3-2.6-2.9-3.6"/>
		</g>
		<line class="st7" x1="59.7" y1="42.7" x2="59.7" y2="64.9"/>
		<circle class="st7" cx="40.1" cy="81.5" r="15.5"/>
		<g>
			<path class="st4" d="M44.5,77.1c0-2.4-1.9-4.3-4.3-4.3s-4.3,1.9-4.3,4.3"/>
			<path class="st4" d="M35.8,82.4v3.8c0,0-0.3,0.3-1.8,2.5h10.8l0.7-2.9"/>
			<line class="st4" x1="35.8" y1="77.1" x2="35.8" y2="79.5"/>
		</g>
		<line class="st7" x1="33" y1="80.8" x2="42" y2="80.8"/>
		<circle class="st7" cx="61.1" cy="109" r="15.5"/>
		<line class="st7" x1="67.3" y1="111.5" x2="54.9" y2="111.5"/>
		<line class="st7" x1="67.3" y1="114.7" x2="54.9" y2="114.7"/>
		<g>
			<line class="st4" x1="61.1" y1="110.1" x2="61.1" y2="108.5"/>
			<line class="st4" x1="61.1" y1="108.5" x2="54.9" y2="101.9"/>
			<line class="st4" x1="61.1" y1="108.5" x2="67.3" y2="101.9"/>
			<line class="st4" x1="61.1" y1="117.5" x2="61.1" y2="116"/>
			<line class="st4" x1="61.1" y1="113.5" x2="61.1" y2="112.7"/>
		</g>
	</g>
</g>
<g id="Paperless" class="st0">
	<g id="Layer_2_1_" class="st1">
		<g>
			<g>
				<rect id="XMLID_65_" x="52.1" y="41.7" class="st2" width="12.4" height="11.6"/>
				<line id="XMLID_64_" class="st4" x1="70.3" y1="41.9" x2="93.1" y2="41.9"/>
				<line id="XMLID_63_" class="st4" x1="70.3" y1="47.7" x2="93.1" y2="47.7"/>
				<line id="XMLID_62_" class="st4" x1="70.3" y1="53.4" x2="93.1" y2="53.4"/>
				<line id="XMLID_61_" class="st4" x1="52" y1="59.1" x2="93.1" y2="59.1"/>
				<line id="XMLID_60_" class="st4" x1="52" y1="64.8" x2="93.1" y2="64.8"/>
				<line id="XMLID_59_" class="st4" x1="52" y1="70.6" x2="93.1" y2="70.6"/>
				<line id="XMLID_58_" class="st4" x1="52" y1="76.3" x2="93.1" y2="76.3"/>
				<line id="XMLID_57_" class="st4" x1="52" y1="82" x2="93.1" y2="82"/>
				<line id="XMLID_56_" class="st4" x1="52" y1="87.7" x2="93.1" y2="87.7"/>
			</g>
			<polyline class="st2" points="67.7,95.6 47.3,95.6 47.3,33.9 97.5,33.9 97.5,50.2 			"/>
			<path class="st14" d="M111.5,125.1H72.5c-1,0-1.9-0.9-1.9-1.9V54.5c0-1,0.9-1.9,1.9-1.9h39.1c1,0,1.9,0.9,1.9,1.9v68.7
				C113.4,124.2,112.5,125.1,111.5,125.1z"/>
			<g id="Layer_3_2_">
				<g>
					<line class="st10" x1="73.5" y1="64" x2="110.9" y2="64"/>
					<line class="st10" x1="72.9" y1="111.2" x2="109" y2="111.2"/>
					<circle class="st4" cx="92" cy="117.9" r="3.9"/>
				</g>
			</g>
			<rect id="XMLID_55_" x="82.5" y="77" class="st2" width="5.7" height="5.3"/>
			<line id="XMLID_54_" class="st4" x1="90.8" y1="77.1" x2="101.3" y2="77.1"/>
			<line id="XMLID_53_" class="st4" x1="90.8" y1="82.3" x2="101.3" y2="82.3"/>
			<line id="XMLID_52_" class="st4" x1="82.4" y1="87.6" x2="101.3" y2="87.6"/>
			<line id="XMLID_51_" class="st4" x1="82.4" y1="92.9" x2="101.3" y2="92.9"/>
			<line id="XMLID_50_" class="st4" x1="82.4" y1="98.1" x2="101.3" y2="98.1"/>
			<rect x="80.2" y="73.4" class="st2" width="23.1" height="28.4"/>
		</g>
	</g>
</g>
<g id="Account_History" class="st0">
	<g class="st1">
		<g>
			<polyline class="st4" points="31.9,101.8 49.9,106.2 54.5,87.9 			"/>
			<path class="st4" d="M49.8,106.1c-5.6-7.4-8.9-16.7-8.9-26.6c0-24.2,19.7-44,44-44s43.9,19.8,43.9,44s-19.7,44-44,44
				c-9.7,0-18.8-3.2-26.1-8.6"/>
		</g>
		<line class="st2" x1="83.9" y1="79.5" x2="114.1" y2="79.5"/>
		<line class="st2" x1="83.7" y1="79.4" x2="83.7" y2="49.1"/>
	</g>
</g>
<g id="Tax_Reporting" class="st0">
	<g class="st1">
		<polyline id="XMLID_70_" class="st2" points="91.8,64.1 91.8,50 106.7,50 106.7,64.1 		"/>
		<line id="XMLID_67_" class="st4" x1="85.6" y1="49.9" x2="85.6" y2="64.1"/>
		<line id="XMLID_66_" class="st4" x1="78.2" y1="49.9" x2="78.2" y2="64.1"/>
		<g id="Specialty_Account_1_">
			<g>
				<polygon class="st3" points="43.2,114.5 117.2,114.5 107.4,66.8 76.9,66.8 69.8,53.4 45.4,53.4 42.2,65.9 31,65.9 				"/>
				<polyline class="st3" points="117.2,114.5 129.7,57.9 120.6,57.9 				"/>
			</g>
		</g>
		<polyline class="st2" points="38.5,63.3 38.5,44.5 117.1,44.5 117.1,101.4 		"/>
	</g>
</g>
<g id="Tax_Documents" class="st0">
	<g class="st1">
		<polyline class="st2" points="60.1,39.1 60.1,37.2 118,37.2 118,108.2 115.6,108.2 		"/>
		<g>
			<rect id="XMLID_80_" x="56.5" y="54.6" class="st2" width="14.3" height="13.3"/>
			<line id="XMLID_79_" class="st4" x1="77.4" y1="54.9" x2="103.6" y2="54.9"/>
			<line id="XMLID_78_" class="st4" x1="77.4" y1="61.5" x2="103.6" y2="61.5"/>
			<line id="XMLID_77_" class="st4" x1="77.4" y1="68" x2="103.6" y2="68"/>
			<line id="XMLID_76_" class="st4" x1="56.3" y1="74.7" x2="103.6" y2="74.7"/>
			<line id="XMLID_75_" class="st4" x1="56.3" y1="81.2" x2="103.6" y2="81.2"/>
			<line id="XMLID_74_" class="st4" x1="56.3" y1="87.9" x2="103.6" y2="87.9"/>
			<line id="XMLID_73_" class="st4" x1="56.3" y1="94.4" x2="103.6" y2="94.4"/>
			<line id="XMLID_72_" class="st4" x1="56.3" y1="101" x2="103.6" y2="101"/>
			<line id="XMLID_71_" class="st4" x1="56.3" y1="107.6" x2="103.6" y2="107.6"/>
		</g>
		<polyline class="st2" points="50.9,69.6 50.9,69.3 50.9,45.5 108.7,45.5 108.7,116.5 81.4,116.5 		"/>
		<polyline class="st3" points="55.6,43.2 55.6,41.3 113.4,41.3 113.4,112.3 111.1,112.3 		"/>
		
			<rect x="36" y="79.1" transform="matrix(2.699990e-03 -1 1 2.699990e-03 -36.444 157.5184)" class="st15" width="49.4" height="35.9"/>
		<g>
			<circle class="st3" cx="50.9" cy="94.4" r="3.3"/>
			<circle class="st3" cx="60.7" cy="94.4" r="3.3"/>
			<circle class="st3" cx="70.6" cy="94.4" r="3.3"/>
			<circle class="st3" cx="50.9" cy="103.8" r="3.3"/>
			<circle class="st3" cx="60.7" cy="103.8" r="3.3"/>
			<circle class="st3" cx="70.5" cy="103.8" r="3.3"/>
			<circle class="st3" cx="70.5" cy="113.1" r="3.3"/>
			<path class="st2" d="M62.1,116.5l-12.5-0.1c-1.1,0-2-0.9-2-2v-2.7c0-1.1,0.9-2,2-2l12.5,0.1c1.1,0,2,0.9,2,2v2.7
				C64.1,115.5,63.1,116.5,62.1,116.5z"/>
			
				<rect x="56.6" y="69.5" transform="matrix(2.699990e-03 -1 1 2.699990e-03 -22.0541 143.1627)" class="st2" width="8.4" height="26.4"/>
		</g>
	</g>
</g>
<g id="Percentage" class="st0">
	<g class="st1">
		<g id="Pricing_1_">
			<g>
				<path class="st2" d="M66.1,94.2l8.4,8.4c0.6,0.6,1.5,0.6,2.2,0l24.7-24.5c0.4-0.4,0.6-0.9,0.6-1.5v-18c0-1.5-1.2-2.7-2.7-2.7
					H83.1c-0.5,0-1.1,0.2-1.5,0.6L56.1,82.1c-0.6,0.6-0.6,1.6,0,2.2l7.7,7.7"/>
				<circle class="st3" cx="92.1" cy="65.8" r="3"/>
				<path class="st2" d="M76.1,89.1c-2.6-0.8-3.8-2.8-3.8-4.2"/>
				<path class="st2" d="M80.2,80.4c2.5,0.8,3.6,2.8,3.6,4.4c0,1.6-1.2,3.5-3.6,4.2"/>
				<path class="st2" d="M76.1,72.9c-1.7,0.6-3,1.9-2.7,4c0.2,1.5,1.3,2.5,2.7,3"/>
				<path class="st2" d="M83,76.4c0,0-0.3-2.5-2.8-3.4"/>
				<line class="st3" x1="78" y1="70.3" x2="78" y2="91.4"/>
			</g>
		</g>
		<g>
			<path class="st16" d="M62.1,40.1c4.5-2.1,9.4-3.4,14.5-3.8"/>
			<path class="st3" d="M79.7,36.1c0.2,0,0.4,0,0.6,0c24,0,43.4,19.4,43.4,43.4s-19.5,43.4-43.4,43.4s-43.4-19.4-43.4-43.4
				c0-16.5,9.2-30.8,22.7-38.2"/>
		</g>
	</g>
</g>
<g id="Liquidity" class="st0">
	<g class="st1">
		<g>
			<path class="st3" d="M30,71.1v48.5c0,2.3,1.9,4.2,4.2,4.2h21.4c2.3,0,4.2-1.9,4.2-4.2V71l0,10.6"/>
			<line class="st2" x1="32.1" y1="78.3" x2="57.5" y2="78.3"/>
		</g>
		<g>
			<path class="st3" d="M65.6,71.1v48.5c0,2.3,1.9,4.2,4.2,4.2h21.4c2.3,0,4.2-1.9,4.2-4.2V71l0,10.6"/>
			<line class="st2" x1="67.8" y1="78.3" x2="93.2" y2="78.3"/>
		</g>
		<path class="st3" d="M101,71.1v48.5c0,2.3,1.9,4.2,4.2,4.2h21.4c2.3,0,4.2-1.9,4.2-4.2V71l0,10.6"/>
		<line class="st2" x1="103.1" y1="90.7" x2="128.5" y2="90.7"/>
		<g>
			<line class="st3" x1="105.9" y1="79.7" x2="111.3" y2="79.7"/>
			<line class="st3" x1="105.9" y1="84.8" x2="111.3" y2="84.8"/>
		</g>
		<g>
			<g>
				<path class="st2" d="M117.4,67.2C117.4,67.2,117.5,67.2,117.4,67.2c0.1,0,0.2,0,0.2,0c2.9,0,5.3-2.7,5.3-5.9s-5.4-10.3-5.4-10.3
					s-5.4,7.1-5.4,10.3C112.1,64.5,114.5,67.2,117.4,67.2z"/>
			</g>
			<path class="st3" d="M114.9,61.9c0,1.6,1.3,2.9,2.9,2.9"/>
		</g>
		<g>
			<g>
				<path class="st2" d="M113,45.8C113,45.8,113,45.8,113,45.8c0.1,0,0.1,0,0.1,0c1.9,0,3.5-1.8,3.5-3.9s-3.6-6.8-3.6-6.8
					s-3.5,4.6-3.5,6.8S111,45.8,113,45.8z"/>
			</g>
			<path class="st3" d="M111.3,42.4c0,1.1,0.8,1.9,1.9,1.9"/>
		</g>
	</g>
</g>
<g id="Execution_speed" class="st0">
	<g class="st1">
		<path class="st2" d="M112.2,49.6c7.4,7.8,11.9,18.4,11.9,30c0,23.3-18.1,42.2-41.1,43.6"/>
		<path class="st3" d="M80.3,123.2c-24.1,0-43.7-19.6-43.7-43.7s19.6-43.7,43.7-43.7c11.5,0,22.1,4.5,29.9,11.8"/>
		<g>
			<line class="st2" x1="80.3" y1="37.7" x2="80.3" y2="43.4"/>
			<line class="st2" x1="80.3" y1="115.7" x2="80.3" y2="121.3"/>
		</g>
		<g>
			<line class="st2" x1="122.2" y1="79.6" x2="116.5" y2="79.6"/>
			<line class="st2" x1="44.2" y1="79.6" x2="38.5" y2="79.6"/>
		</g>
		<line class="st2" x1="80.3" y1="79.6" x2="107.6" y2="52.3"/>
	</g>
</g>
<g id="Calculators" class="st0">
	<g class="st1">
		<rect x="39.9" y="34.2" class="st2" width="66" height="90.6"/>
		<rect x="48.9" y="45.6" class="st2" width="48" height="15.4"/>
		<g>
			
				<ellipse transform="matrix(2.699990e-03 -1 1 2.699990e-03 -20.0236 129.6544)" class="st3" cx="55" cy="74.9" rx="6.1" ry="6.1"/>
			
				<ellipse transform="matrix(2.699990e-03 -1 1 2.699990e-03 -2.2258 147.6264)" class="st3" cx="72.9" cy="74.9" rx="6.1" ry="6.1"/>
			
				<ellipse transform="matrix(2.699990e-03 -1 1 2.699990e-03 15.5995 165.5727)" class="st3" cx="90.8" cy="75" rx="6.1" ry="6.1"/>
			
				<ellipse transform="matrix(2.699990e-03 -1 1 2.699990e-03 -37.1184 146.5583)" class="st3" cx="54.9" cy="91.9" rx="6.1" ry="6.1"/>
			
				<ellipse transform="matrix(2.699990e-03 -1 1 2.699990e-03 -19.3198 164.5315)" class="st3" cx="72.8" cy="92" rx="6.1" ry="6.1"/>
			
				<ellipse transform="matrix(2.699990e-03 -1 1 2.699990e-03 -1.4668 182.5051)" class="st3" cx="90.8" cy="92" rx="6.1" ry="6.1"/>
			
				<ellipse transform="matrix(2.699990e-03 -1 1 2.699990e-03 -18.5333 199.494)" class="st3" cx="90.8" cy="109" rx="6.1" ry="6.1"/>
			<path class="st2" d="M75.6,115.2H52.1c-1.8,0-3.3-1.5-3.3-3.3v-5.7c0-1.8,1.5-3.3,3.3-3.3h23.4c1.8,0,3.3,1.5,3.3,3.3v5.7
				C78.9,113.7,77.4,115.2,75.6,115.2z"/>
		</g>
		<g>
			<path class="st3" d="M107.4,117.3h6.1c0,0,0-75.5,0-75.5h-6.1"/>
			<path class="st2" d="M114.7,112.3h6.1c0,0,0-65.5,0-65.5h-6.1"/>
		</g>
	</g>
</g>
<g id="Manage" class="st0">
	<g class="st1">
		<line class="st3" x1="83.4" y1="91.1" x2="119" y2="126.7"/>
		<path class="st3" d="M105.6,109.2c7.3-9.4,6.7-22.9-1.9-31.6c-9.3-9.3-24.4-9.3-33.7,0c-9.3,9.3-9.3,24.4,0,33.7
			c8.6,8.6,22.2,9.3,31.6,1.9"/>
		<line class="st2" x1="61.6" y1="69.2" x2="82.2" y2="89.8"/>
		<path class="st2" d="M66.3,71.5c4.3-5.4,3.9-13.3-1.1-18.3c-5.4-5.4-14.1-5.4-19.5,0s-5.4,14.1,0,19.5c5,5,12.9,5.4,18.3,1.1"/>
		<line class="st3" x1="77.9" y1="38.6" x2="66.8" y2="49.7"/>
		<path class="st3" d="M72.3,45.5c2.9,2.3,7.1,2.1,9.7-0.6c2.9-2.9,2.9-7.5,0-10.4c-2.9-2.9-7.5-2.9-10.4,0
			c-2.7,2.7-2.8,6.9-0.6,9.7"/>
	</g>
</g>
<g id="Knowledge_01" class="st0">
	<g class="st1">
		<g>
			<polygon class="st2" points="69.9,118.1 29.9,107.4 19.3,67.5 48.5,38.2 88.4,49 99.1,88.9 			"/>
			<circle class="st3" cx="59.3" cy="78.9" r="18.3"/>
		</g>
		<path class="st3" d="M137,110.2c0.7-1.3,2.1-1.9,3.4-1.6c0.5-1.2,0.8-2.4,1-3.7c-1.3-0.5-2.1-1.7-2.1-3.1s0.9-2.6,2.1-3.1
			c-0.2-1.3-0.5-2.5-1-3.7c-1.3,0.2-2.7-0.4-3.4-1.6c-0.7-1.3-0.5-2.7,0.3-3.8c-0.8-1-1.7-1.9-2.7-2.7c-1.1,0.9-2.5,1-3.8,0.3
			c-1.3-0.7-1.9-2.1-1.6-3.4c-1.2-0.5-2.4-0.8-3.7-1c-0.5,1.3-1.7,2.1-3.1,2.1c-1.4,0-2.6-0.9-3.1-2.1c-1.3,0.2-2.5,0.5-3.7,1
			c0.2,1.3-0.4,2.7-1.6,3.4c-1.3,0.7-2.7,0.5-3.8-0.3c-1,0.8-1.9,1.7-2.7,2.7c0.9,1.1,1,2.5,0.3,3.8c-0.7,1.3-2.1,1.9-3.4,1.6
			c-0.5,1.2-0.8,2.4-1,3.7c1.3,0.5,2.1,1.7,2.1,3.1s-0.9,2.6-2.1,3.1c0.2,1.3,0.5,2.5,1,3.7c1.3-0.2,2.7,0.4,3.4,1.6
			c0.7,1.3,0.5,2.7-0.3,3.8c0.8,1,1.7,1.9,2.7,2.7c1.1-0.9,2.5-1,3.8-0.3c1.3,0.7,1.9,2.1,1.6,3.4c1.2,0.5,2.4,0.8,3.7,1
			c0.5-1.3,1.7-2.1,3.1-2.1c1.4,0,2.6,0.9,3.1,2.1c1.3-0.2,2.5-0.5,3.7-1c-0.2-1.3,0.4-2.7,1.6-3.4c1.3-0.7,2.7-0.5,3.8,0.3
			c1-0.8,1.9-1.7,2.7-2.7C136.4,113,136.2,111.4,137,110.2z"/>
		<circle class="st2" cx="122.3" cy="101.8" r="8.3"/>
	</g>
</g>
<g id="Knowledge_02" class="st0">
	<g class="st1">
		<path class="st3" d="M111.2,104.3c1.4-2.3,4-3.5,6.5-3.1c0.9-2.2,1.5-4.6,1.9-7c-2.4-0.9-4.1-3.2-4.1-5.9s1.7-5,4.1-5.9
			c-0.4-2.4-1-4.8-1.9-7c-2.5,0.4-5.1-0.7-6.5-3.1c-1.4-2.3-1-5.2,0.6-7.1c-1.6-1.9-3.3-3.6-5.2-5.2c-2,1.6-4.8,1.9-7.1,0.6
			s-3.5-4-3.1-6.5c-2.2-0.9-4.6-1.5-7-1.9c-0.9,2.4-3.2,4.1-5.9,4.1c-2.7,0-5-1.7-5.9-4.1c-2.4,0.4-4.8,1-7,1.9
			c0.4,2.5-0.7,5.1-3.1,6.5s-5.2,1-7.1-0.6c-1.9,1.6-3.6,3.3-5.2,5.2c1.6,2,1.9,4.8,0.6,7.1s-4,3.5-6.5,3.1c-0.9,2.2-1.5,4.6-1.9,7
			c2.4,0.9,4.1,3.2,4.1,5.9s-1.7,5-4.1,5.9c0.4,2.4,1,4.8,1.9,7c2.5-0.4,5.1,0.7,6.5,3.1s1,5.2-0.6,7.1c1.6,1.9,3.3,3.6,5.2,5.2
			c2-1.6,4.8-1.9,7.1-0.6s3.5,4,3.1,6.5c2.2,0.9,4.6,1.5,7,1.9c0.9-2.4,3.2-4.1,5.9-4.1c2.7,0,5,1.7,5.9,4.1c2.4-0.4,4.8-1,7-1.9
			c-0.4-2.5,0.7-5.1,3.1-6.5s5.2-1,7.1,0.6c1.9-1.6,3.6-3.3,5.2-5.2C110.2,109.5,109.8,106.7,111.2,104.3z"/>
		<circle class="st2" cx="83.5" cy="88.4" r="21"/>
		<path class="st3" d="M60.7,50.6c0.4-0.7,1.2-1.1,2-0.9c0.3-0.7,0.5-1.4,0.6-2.2c-0.7-0.3-1.2-1-1.2-1.8s0.5-1.6,1.2-1.8
			c-0.1-0.7-0.3-1.5-0.6-2.2c-0.8,0.1-1.6-0.2-2-0.9c-0.4-0.7-0.3-1.6,0.2-2.2c-0.5-0.6-1-1.1-1.6-1.6c-0.6,0.5-1.5,0.6-2.2,0.2
			c-0.7-0.4-1.1-1.2-0.9-2c-0.7-0.3-1.4-0.5-2.2-0.6c-0.3,0.7-1,1.2-1.8,1.2c-0.8,0-1.6-0.5-1.8-1.2c-0.7,0.1-1.5,0.3-2.2,0.6
			c0.1,0.8-0.2,1.6-0.9,2c-0.7,0.4-1.6,0.3-2.2-0.2c-0.6,0.5-1.1,1-1.6,1.6c0.5,0.6,0.6,1.5,0.2,2.2c-0.4,0.7-1.2,1.1-2,0.9
			c-0.3,0.7-0.5,1.4-0.6,2.2c0.7,0.3,1.2,1,1.2,1.8s-0.5,1.6-1.2,1.8c0.1,0.7,0.3,1.5,0.6,2.2c0.8-0.1,1.6,0.2,2,0.9
			c0.4,0.7,0.3,1.6-0.2,2.2c0.5,0.6,1,1.1,1.6,1.6c0.6-0.5,1.5-0.6,2.2-0.2c0.7,0.4,1.1,1.2,0.9,2c0.7,0.3,1.4,0.5,2.2,0.6
			c0.3-0.7,1-1.2,1.8-1.2c0.8,0,1.6,0.5,1.8,1.2c0.7-0.1,1.5-0.3,2.2-0.6c-0.1-0.8,0.2-1.6,0.9-2c0.7-0.4,1.6-0.3,2.2,0.2
			c0.6-0.5,1.1-1,1.6-1.6C60.4,52.3,60.3,51.4,60.7,50.6z"/>
		<circle class="st2" cx="52.2" cy="45.7" r="4.9"/>
	</g>
</g>
<g id="Layer_02" class="st0">
	<g class="st1">
		<circle class="st2" cx="121" cy="79.5" r="37.5"/>
		<circle class="st3" cx="39.7" cy="79.5" r="37.5"/>
		<path class="st3" d="M136.4,46.3v2.6l-2.4,0.8l-3-3.4l-5.1,2.6l-6.6,2.6l-1.4-0.4l-1.7-1.9l2.4-0.1l1-1.8l-4.1-1.4l-8.3,2.7
			l-2.2,2.5c0,0-2.4,1.3-2.4,1.6s1.5,2.4,1.5,2.4l1.7-1.4l1.2,2l1.3-0.2l0.9-1.8v-2.1l2.7-2.7l0.7,1.5l-1.7,2.2l1.3,0.5l2.8-1
			l-0.2,1.8l-3.3,1.1l-1.7,3.5l-3.1-0.6l-2.7-0.7l-2.7,2.9L99,60.7l0.7,3l-3,0.1l-0.1,3.9l3.1,0.1l2.4-3.3l3.1-0.1l2.7,3.5l1-0.5
			l-2.1-4.6l2.6,0.8l1.9,4.5l1-0.4v-2.9l1.8-0.4l1.9-3.8l1.4,1.5l4.1,3l-1.8,1.5l-3.1-2l-2.5,2.1l1,1.9l2.9-0.3l-0.5,3.6L114,72
			l-2.8-1.3l-1.4,0.1l0.2,2.4l-4.4-2.5l-0.2-1.6l-1.1-1.7l-3.6,2l-3.3,0.4l-2,0.9v3.1l-3.1,3.8l0.1,3.1l-0.4,3.9l3.9,5.1l6.5-1.9
			l0.9,1.8l1.9-0.2l-0.6,4.5l2.6,4.9l-1.2,4.5l4.5,11.2l2.9-0.4l3-3.4l0.2-3.2l1.8-1l-0.4-3.2l2.1-1.9c0,0-0.5-7.8-0.4-7.5
			c0.1,0.3,6-8.3,6-8.3l-1.7-1.4l-2.7,2.2l-4.4-11.8l1.2-0.3l3.9,9.1l3-1l3.5-4.7l-1.1-1.3L125,77l-1.2-3.3l1.8-0.5l0.9,1.8h1.7
			l1.4,0.9l3.4-0.8l2.1,2.7l3.1,8.6l1.1-1l0.3-4.2l5.2-4.9l6.9,10.4l1.7-2.7l-1.5-4.5l1.4-1.9l2.6,0.3l1.4-2.3"/>
		<polyline class="st2" points="24.1,46.3 29.3,48.5 32.1,47.4 36.1,48.4 37.5,45.6 40.1,48.3 39.6,50 36.5,52.5 37.9,54.4 
			40.2,55.7 41.9,56 43.1,59.7 44.3,59.5 44.2,56.6 45.5,55.5 44.9,53.6 45.1,51.6 46.8,51 48.7,52.8 49,54.5 49.9,55 51.6,52.8 
			53.1,55.6 55.6,57.6 54.2,59.7 52.4,60.6 50.2,59 47.7,61.9 48.6,62.3 50.7,60.4 51.7,62.3 48.8,64.3 45.2,67.3 45.7,69.4 
			43.1,72 43.5,75.2 42.3,75.7 41.5,73 39.6,72.2 35.4,73 34.6,76.2 36,79.6 38.7,80.7 38.9,78.2 40.8,78.3 39.8,81.6 42,81.9 
			42,86.1 44.5,86.9 47.1,84.2 50.5,86.3 52.4,85.7 55,88.8 57.6,89.1 58.4,93.3 62.8,93.8 66.2,97.1 63.9,102.6 61.6,107.2 
			59.5,108.4 58.1,110.8 		"/>
		<polyline class="st3" points="14.1,53.1 15.9,53.9 17.2,53.6 22.5,60.1 22.7,67.3 28,76.5 28.9,75.5 30.6,76.3 31.4,79.3 
			35.1,82.2 37.1,81.9 38.7,83.4 40.7,84.3 41.8,87 43.7,87.9 44.9,87.8 45,89.9 42.4,92.3 43.2,93.5 42.4,95.6 45.7,102 
			48.3,103.7 46.9,114 		"/>
	</g>
</g>
<g id="Security" class="st0">
	<g class="st1">
		<rect x="49.8" y="76.5" class="st3" width="61.2" height="47.5"/>
		<path class="st10" d="M88.1,95.4c0-4-3.2-7.3-7.3-7.3c-4,0-7.3,3.2-7.3,7.3c0,2.6,1.3,4.8,3.4,6.2V112h7.8v-10.4
			C86.7,100.3,88.1,98,88.1,95.4z"/>
		<path class="st10" d="M104.9,73.5v-14c0-13.5-11-24.5-24.5-24.5S55.8,46,55.8,59.5v14"/>
		<path class="st10" d="M66.6,73.5v-14c0-7.6,6.2-13.8,13.8-13.8s13.8,6.2,13.8,13.8v14"/>
	</g>
</g>
<g id="EFTs" class="st0">
	<g class="st1">
		<g>
			<rect x="41.1" y="82.6" class="st3" width="46.1" height="35.8"/>
			<path class="st10" d="M69.9,96.8c0-3.1-2.4-5.5-5.5-5.5c-3.1,0-5.5,2.4-5.5,5.5c0,1.9,1,3.6,2.6,4.6v7.8h5.8v-7.8
				C69,100.5,69.9,98.8,69.9,96.8z"/>
			<path class="st10" d="M82.7,80.3V69.8c0-10.2-8.3-18.4-18.4-18.4c-10.2,0-18.4,8.3-18.4,18.4v10.5"/>
			<path class="st10" d="M53.8,80.3V69.8c0-5.7,4.7-10.4,10.4-10.4S74.5,64,74.5,69.8v10.5"/>
		</g>
		<polyline class="st2" points="59.2,46 59.2,36.1 119.5,36.1 119.5,112.2 114.7,112.2 		"/>
		<polyline class="st2" points="59.2,46 59.2,36.1 111.1,46.8 111.1,122.9 92.2,112.2 		"/>
	</g>
</g>
<g id="Layer_03" class="st0">
	<g class="st1">
		<g>
			<polyline class="st3" points="97.6,38 121.8,38 121.8,62.3 			"/>
			<line class="st3" x1="118.9" y1="40.9" x2="85.1" y2="74.8"/>
		</g>
		<g>
			<polyline class="st10" points="63.1,74.8 38.8,74.8 38.8,50.5 			"/>
			<line class="st10" x1="41.7" y1="71.9" x2="75.6" y2="38"/>
		</g>
		<g>
			<polyline class="st10" points="109.4,121 85.1,121 85.1,96.7 			"/>
			<line class="st10" x1="88" y1="118.1" x2="121.8" y2="84.2"/>
		</g>
		<g>
			<polyline class="st10" points="63.1,121 38.8,121 38.8,96.7 			"/>
			<line class="st10" x1="41.7" y1="118.1" x2="75.6" y2="84.2"/>
		</g>
	</g>
</g>
<g id="Bullseye" class="st0">
	<g class="st1">
		<path class="st3" d="M52.2,110.9c7.5,6.7,17.3,10.8,28.2,10.8c23.3,0,42.2-18.9,42.2-42.2s-18.9-42.2-42.2-42.2
			S38.2,56.2,38.2,79.5c0,10.8,4.1,20.7,10.8,28.2"/>
		<path class="st3" d="M72.7,90.3c2.1,1.5,4.8,2.4,7.6,2.4c7.3,0,13.2-5.9,13.2-13.2s-5.9-13.2-13.2-13.2s-13.2,5.9-13.2,13.2
			c0,2.8,0.9,5.5,2.4,7.6"/>
		<polyline class="st2" points="38.2,112.3 47.5,112.3 47.5,121.6 		"/>
		<path class="st3" d="M60.9,102.1c5.2,4.5,12,7.2,19.4,7.2c16.4,0,29.8-13.3,29.8-29.8S96.8,49.7,80.3,49.7S50.5,63,50.5,79.5
			c0,7.4,2.7,14.2,7.2,19.4"/>
		<line class="st2" x1="80.3" y1="79.5" x2="47.6" y2="112.3"/>
	</g>
</g>
<g id="Maintenance" class="st0">
	<g class="st1">
		<g>
			
				<rect x="36.2" y="89.3" transform="matrix(0.7071 -0.7071 0.7071 0.7071 -52.0907 71.3482)" class="st3" width="47.8" height="18.4"/>
			<path class="st2" d="M121.1,44.2l-6.6,6.6l-6.6-6.6l6.6-6.6c-3.6-1.3-7.9-0.4-10.8,2.5c-4.1,4.1-4.1,10.8,0,14.9s10.8,4.1,14.9,0
				C121.5,52,122.3,47.8,121.1,44.2z"/>
			<line class="st2" x1="75.7" y1="76.9" x2="98.6" y2="54"/>
			<line class="st2" x1="104.7" y1="60" x2="81.7" y2="83"/>
			<line class="st3" x1="73.8" y1="84.8" x2="46.2" y2="112.4"/>
			<line class="st3" x1="70.8" y1="81.8" x2="43.2" y2="109.4"/>
			<line class="st3" x1="76.8" y1="87.9" x2="49.2" y2="115.5"/>
		</g>
		<g>
			<polyline class="st3" points="63.1,74.5 36.9,48.4 49.4,36 75.2,61.9 			"/>
			<g>
				<line class="st2" x1="42.1" y1="50.3" x2="46.7" y2="45.7"/>
				<line class="st2" x1="48.9" y1="57" x2="53.4" y2="52.4"/>
				<line class="st2" x1="55.7" y1="63.7" x2="60.2" y2="59.2"/>
				<line class="st2" x1="62.4" y1="70.5" x2="67" y2="66"/>
				<line class="st2" x1="89.4" y1="97.6" x2="94" y2="93"/>
				<line class="st2" x1="96.2" y1="104.3" x2="100.7" y2="99.7"/>
				<line class="st2" x1="103" y1="111.1" x2="107.5" y2="106.5"/>
				<line class="st2" x1="109.8" y1="117.8" x2="114.3" y2="113.3"/>
			</g>
			<polyline class="st3" points="85.4,96.8 111.6,123 124,110.6 97.8,84.4 			"/>
		</g>
	</g>
</g>
<g id="Powerful_Platforms" class="st0">
	<g class="st1">
		<polygon class="st2" points="94.6,35.4 64.1,79.4 83.1,79.4 75.6,112.7 104.8,69.5 87.6,69.5 		"/>
		<path class="st3" d="M96.5,43.7c14.9,6.3,25.4,21.1,25.4,38.3c0,23-18.6,41.6-41.6,41.6S38.7,105,38.7,82s18.6-41.6,41.6-41.6
			c2,0,3.8,0.2,5.7,0.4"/>
	</g>
</g>
<g id="Layer_04" class="st0">
	<g class="st1">
		<path class="st10" d="M92.8,96.8V46.6c0-6.8-5.6-12.4-12.4-12.4s-12.4,5.6-12.4,12.4v5.8"/>
		<path class="st3" d="M67.9,61.5v50.9c0,6.8,5.6,12.4,12.4,12.4s12.4-5.6,12.4-12.4V105"/>
		<path class="st10" d="M89.9,59.7L45.6,85.2c-5.9,3.5-7.9,11-4.5,17s11,8,17,4.6l18.5-10.7"/>
		<path class="st3" d="M83.4,92.1l31.6-18.3c6-3.4,8-11,4.6-17s-11-8-17-4.6L96.1,56"/>
		<line class="st10" x1="101.8" y1="77.6" x2="84.5" y2="67.5"/>
		<path class="st10" d="M75.2,62.2L58,52.3c-6-3.4-13.5-1.4-17,4.6s-1.3,13.5,4.6,16.9l57,32.9c6,3.4,13.5,1.4,17-4.6
			c3.4-6,1.4-13.5-4.6-17l-7.3-4.2"/>
		<circle class="st3" cx="80.3" cy="79.5" r="2.9"/>
	</g>
</g>
<g id="Updates" class="st0">
	<g class="st1">
		<line class="st3" x1="80.3" y1="34.1" x2="80.3" y2="48.3"/>
		<line class="st3" x1="57.6" y1="40.2" x2="64.7" y2="52.5"/>
		<line class="st3" x1="41.1" y1="56.8" x2="53.3" y2="63.9"/>
		<line class="st3" x1="35" y1="79.5" x2="49.1" y2="79.5"/>
		<line class="st3" x1="41.1" y1="102.2" x2="53.3" y2="95.1"/>
		<line class="st3" x1="57.6" y1="118.8" x2="64.7" y2="106.5"/>
		<line class="st3" x1="80.3" y1="124.9" x2="80.3" y2="110.7"/>
		<line class="st3" x1="103" y1="118.8" x2="96" y2="106.5"/>
		<line class="st3" x1="119.6" y1="102.2" x2="107.4" y2="95.1"/>
		<line class="st3" x1="125.7" y1="79.5" x2="111.6" y2="79.5"/>
		<line class="st3" x1="119.6" y1="56.8" x2="107.4" y2="63.9"/>
		<line class="st3" x1="103" y1="40.2" x2="96" y2="52.5"/>
		<path class="st2" d="M103.5,80.5c-0.2,3.6-1.2,7.3-3.1,10.6c-6.4,11-20.5,14.9-31.7,8.5S53.9,79,60.2,67.9s20.6-14.8,31.7-8.4
			c3.8,2.1,6.7,5.2,8.6,8.7"/>
		<polyline class="st2" points="103,66.5 101.9,71 97.3,69.8 		"/>
	</g>
</g>
<g id="Layer_05" class="st0">
	<g class="st1">
		<polygon class="st3" points="122.2,68.4 80.4,114 38.4,68.4 55.1,45 105.5,45 		"/>
		<line class="st10" x1="45" y1="68" x2="115.5" y2="68"/>
		<polyline class="st10" points="80.4,72.2 80.4,108.2 99.6,72.2 		"/>
		<polyline class="st10" points="80.4,72.2 80.4,108.2 61.2,72.2 		"/>
		<line class="st10" x1="80.2" y1="62.5" x2="80.2" y2="49.2"/>
		<line class="st10" x1="99.6" y1="64.9" x2="91.2" y2="49.2"/>
		<line class="st10" x1="69.6" y1="49.2" x2="61.2" y2="64.9"/>
	</g>
</g>
<g id="Chat_01" class="st0">
	<g class="st1">
		
			<ellipse transform="matrix(0.9997 -2.410023e-02 2.410023e-02 0.9997 -1.8926 1.9591)" class="st17" cx="80.3" cy="79.5" rx="44.1" ry="44.1"/>
		<g>
			<polyline class="st3" points="62.2,58 109.8,58 109.8,91.5 			"/>
			<polygon class="st3" points="55.6,64.5 55.6,98 62.7,98 62.7,107.9 72.7,98 103.3,98 103.3,64.5 			"/>
			<g>
				<line class="st10" x1="66.6" y1="78.3" x2="92.5" y2="78.3"/>
				<line class="st10" x1="66.6" y1="85.7" x2="92.5" y2="85.7"/>
			</g>
		</g>
	</g>
</g>
<g id="Company_Profile_1_" class="st0">
	<g class="st1">
		
			<ellipse transform="matrix(0.9997 -2.410023e-02 2.410023e-02 0.9997 -1.8926 1.9591)" class="st17" cx="80.3" cy="79.5" rx="44.1" ry="44.1"/>
		<g>
			<rect x="58.1" y="61.7" class="st2" width="28.2" height="28.2"/>
			<polygon class="st2" points="102.6,100.9 74.3,100.9 74.3,72.6 85.5,72.6 102.6,72.6 			"/>
			<line class="st3" x1="58.1" y1="61.7" x2="74.3" y2="72.6"/>
			<line class="st3" x1="58.1" y1="89.9" x2="74.3" y2="100.9"/>
			<line class="st3" x1="86.3" y1="61.7" x2="102.6" y2="72.6"/>
			<line class="st3" x1="86.3" y1="89.9" x2="102.6" y2="100.9"/>
		</g>
	</g>
</g>
<g id="Mobile" class="st0">
	<g class="st1">
		<g>
			<rect x="68.3" y="57.8" class="st3" width="23.8" height="43.2"/>
			<line class="st3" x1="69" y1="93.1" x2="91.3" y2="93.1"/>
		</g>
		<circle class="st17" cx="80.3" cy="79.5" r="44.1"/>
	</g>
</g>
<g id="Satellite_1_" class="st0">
	<g class="st1">
		
			<ellipse transform="matrix(0.9997 -2.410023e-02 2.410023e-02 0.9997 -1.8926 1.9591)" class="st17" cx="80.3" cy="79.5" rx="44.1" ry="44.1"/>
		<g>
			<path class="st3" d="M91.5,88c-5.1,5.1-13.2,5.1-18.4,0s-5.1-13.2,0-18.4L91.5,88z"/>
			<path class="st10" d="M85.8,66.3c2.5-2.5,6.4-2.5,8.8,0s2.5,6.4,0,8.8"/>
			<path class="st10" d="M81.4,61.8c4.9-4.9,12.9-4.9,17.8,0s4.9,12.9,0,17.8"/>
			<line class="st10" x1="82.3" y1="78.6" x2="87.7" y2="73.1"/>
			<polygon class="st3" points="72.9,91.7 82.3,100.9 63.2,100.9 			"/>
		</g>
	</g>
</g>
<g id="MyTrade_Community" class="st0">
	<g class="st1">
		
			<ellipse transform="matrix(0.9997 -2.410023e-02 2.410023e-02 0.9997 -1.8926 1.9591)" class="st17" cx="80.3" cy="79.5" rx="44.1" ry="44.1"/>
		<g>
			<circle class="st3" cx="80.3" cy="53.7" r="4.1"/>
			<ellipse transform="matrix(0.5 -0.866 0.866 0.5 -28.7502 83.5067)" class="st6" cx="57.9" cy="66.7" rx="4.1" ry="4.1"/>
			<ellipse transform="matrix(0.866 -0.5 0.5 0.866 -38.4344 41.3344)" class="st3" cx="57.9" cy="92.4" rx="4.1" ry="4.1"/>
			<circle class="st3" cx="80.3" cy="105.3" r="4.1"/>
			<ellipse transform="matrix(0.5 -0.866 0.866 0.5 -28.798 135.0154)" class="st3" cx="102.5" cy="92.4" rx="4.1" ry="4.1"/>
			<ellipse transform="matrix(0.866 -0.5 0.5 0.866 -19.5775 60.2076)" class="st3" cx="102.6" cy="66.6" rx="4.1" ry="4.1"/>
			<ellipse transform="matrix(0.866 -0.5 0.5 0.866 -28.9854 50.8241)" class="st6" cx="80.3" cy="79.5" rx="4.1" ry="4.1"/>
		</g>
	</g>
</g>
<g id="Third_Party_Analyst_1_" class="st0">
	<g class="st1">
		
			<ellipse transform="matrix(0.9997 -2.410023e-02 2.410023e-02 0.9997 -1.8926 1.9591)" class="st17" cx="80.3" cy="79.5" rx="44.1" ry="44.1"/>
		<g>
			<polyline class="st3" points="93,61.7 98.9,61.7 98.9,104.7 61.8,104.7 61.8,61.7 67.1,61.7 			"/>
			<polygon class="st3" points="85.1,56.9 85.1,50.7 75.6,50.7 75.6,56.9 71.9,56.9 71.9,65.9 75.6,65.9 85.1,65.9 88.6,65.9 
				88.6,56.9 			"/>
			<polyline class="st10" points="67.4,79.5 71.5,83.6 82.1,73.1 			"/>
			<polyline class="st10" points="67.4,93.4 71.5,97.5 82.1,87.1 			"/>
		</g>
	</g>
</g>
<g id="Media_Player" class="st0">
	<g class="st1">
		
			<ellipse transform="matrix(0.9997 -2.410023e-02 2.410023e-02 0.9997 -1.8926 1.9591)" class="st17" cx="80.3" cy="79.5" rx="44.1" ry="44.1"/>
		<rect x="56.5" y="63.6" class="st3" width="47.7" height="34.8"/>
		<polygon class="st2" points="76.6,92.7 76.6,71 87.6,81.8 		"/>
	</g>
</g>
<g id="Savings" class="st0">
	<g class="st1">
		
			<ellipse transform="matrix(0.9997 -2.410023e-02 2.410023e-02 0.9997 -1.8926 1.9591)" class="st17" cx="80.3" cy="79.5" rx="44.1" ry="44.1"/>
		<g>
			<circle class="st2" cx="80.3" cy="79.5" r="22.4"/>
			<path class="st3" d="M77.7,90.6c-3.5-1.1-5.1-3.9-5.1-5.8"/>
			<path class="st3" d="M83.2,79c3.5,1.1,4.9,3.7,4.9,6c0,2.3-1.6,4.8-4.9,5.6"/>
			<path class="st3" d="M77.7,68.6c-2.3,0.9-4.2,2.6-3.7,5.5c0.4,2.1,1.8,3.5,3.7,4.1"/>
			<path class="st3" d="M87,73.3c0,0-0.4-3.4-3.9-4.8"/>
			<line class="st2" x1="80.3" y1="65" x2="80.3" y2="93.8"/>
		</g>
	</g>
</g>
<g id="Chat_02_1_" class="st0">
	<g class="st1">
		
			<ellipse transform="matrix(0.9997 -2.410023e-02 2.410023e-02 0.9997 -1.8926 1.9591)" class="st17" cx="80.3" cy="79.5" rx="44.1" ry="44.1"/>
		<g>
			<g>
				<polyline class="st3" points="69.9,83.4 65.3,83.4 58.4,90.1 58.4,83.4 53.7,83.4 53.7,60.4 86.2,60.4 86.2,68.4 				"/>
			</g>
			<g>
				<polygon class="st10" points="107,72.4 107,95.2 102,95.2 102,102.1 95.3,95.2 74.5,95.2 74.5,72.4 				"/>
			</g>
		</g>
	</g>
</g>
<g id="Community_3_" class="st0">
	<g class="st1">
		<g>
			<path class="st10" d="M78.4,82.1h-5.6c-4.4,0-7.8,3.5-7.8,7.8v9h10.2"/>
			<circle class="st3" cx="95.5" cy="68.2" r="8.3"/>
			<path class="st3" d="M103.3,82.1H87.9c-3.9,0-7.1,3.2-7.1,7.1v9.9h29.5v-9.9C110.3,85.3,107.2,82.1,103.3,82.1z"/>
			<path class="st10" d="M84.2,61.1c-1.2-0.9-2.8-1.4-4.6-1.4c-4.6,0-8.3,3.7-8.3,8.3s3.7,8.3,8.3,8.3c1.8,0,3.4-0.5,4.6-1.4"/>
			<path class="st10" d="M63.7,82.1h-5.6c-4.4,0-7.8,3.5-7.8,7.8v9h10.4"/>
			<path class="st10" d="M69.7,61.1c-1.2-0.9-2.8-1.4-4.6-1.4c-4.6,0-8.3,3.7-8.3,8.3s3.7,8.3,8.3,8.3c1.8,0,3.4-0.5,4.6-1.4"/>
		</g>
		
			<ellipse transform="matrix(0.9997 -2.410023e-02 2.410023e-02 0.9997 -1.8926 1.9591)" class="st17" cx="80.3" cy="79.5" rx="44.1" ry="44.1"/>
	</g>
</g>
<g id="Live_Audio" class="st0">
	<g class="st1">
		
			<ellipse transform="matrix(0.9997 -2.410023e-02 2.410023e-02 0.9997 -1.8926 1.9591)" class="st17" cx="80.3" cy="79.5" rx="44.1" ry="44.1"/>
		<g>
			<polygon class="st3" points="87.4,94 67.1,85.1 67.1,73.9 87.4,65 			"/>
			<rect x="56.5" y="73.9" class="st3" width="10.6" height="11.5"/>
			<line class="st10" x1="93.4" y1="79.5" x2="104" y2="79.5"/>
			<line class="st10" x1="93.4" y1="73.7" x2="101" y2="66.3"/>
			<line class="st10" x1="93.4" y1="85" x2="101" y2="92.4"/>
		</g>
	</g>
</g>
<g id="Layer_06" class="st0">
	<g class="st1">
		
			<ellipse transform="matrix(0.9997 -2.410023e-02 2.410023e-02 0.9997 -1.8926 1.9591)" class="st17" cx="80.3" cy="79.5" rx="44.2" ry="44.2"/>
		<g>
			<rect x="61.1" y="60.2" class="st2" width="14.4" height="14.4"/>
			<rect x="73.1" y="72.2" class="st3" width="14.4" height="14.4"/>
			<rect x="85.2" y="84.4" class="st2" width="14.4" height="14.4"/>
		</g>
	</g>
</g>
<g id="Support_1_" class="st0">
	<g class="st1">
		
			<ellipse transform="matrix(0.9997 -2.410023e-02 2.410023e-02 0.9997 -1.8926 1.9591)" class="st17" cx="80.3" cy="79.5" rx="44.2" ry="44.2"/>
		<g>
			<path class="st2" d="M59.4,85.4v-9.7c0-10.3,9.4-18.7,20.9-18.7l0,0c11.5,0,20.9,8.4,20.9,18.7v9.7"/>
			<path class="st3" d="M95.1,93.1L95.1,93.1c-1.9,0-3.3-1.5-3.3-3.3v-7.9c0.1-2,1.6-3.4,3.3-3.3l0,0c1.9,0,3.3,1.5,3.3,3.3v7.8
				C98.5,91.5,97,93.1,95.1,93.1z"/>
			<path class="st3" d="M65.8,93.1h-1.1c-1.5,0-2.8-1.3-2.8-2.8v-8.9c0-1.5,1.3-2.8,2.8-2.8h1.1c1.5,0,2.8,1.3,2.8,2.8v8.9
				C68.6,91.8,67.4,93.1,65.8,93.1z"/>
			<circle class="st3" cx="84.4" cy="99.1" r="2.8"/>
			<polyline class="st2" points="89.1,99.1 95.7,99.1 95.7,95.4 			"/>
		</g>
	</g>
</g>
<g id="Layer_07" class="st0">
	<g class="st1">
		
			<ellipse transform="matrix(1 -2.499992e-03 2.499992e-03 1 -0.1985 0.2011)" class="st17" cx="80.3" cy="79.5" rx="44.3" ry="44.3"/>
		<g>
			<g>
				<g>
					<polyline class="st2" points="69.9,74.4 55.8,79.7 54.1,75.1 68.1,69.8 					"/>
					<polyline class="st3" points="90.5,68.5 71.4,75.7 68.4,67.8 87.5,60.7 					"/>
					
						<rect x="89.7" y="57.8" transform="matrix(0.9357 -0.3528 0.3528 0.9357 -16.2973 36.8436)" class="st2" width="6.4" height="10.7"/>
				</g>
				<path class="st3" d="M98.5,65.2c1.1-1.2,1.6-3,1-4.6c-0.6-1.6-2.1-2.6-3.7-2.8"/>
			</g>
			<line class="st2" x1="80.8" y1="75.8" x2="80.8" y2="102"/>
			<polyline class="st2" points="67.7,102 80.8,73.6 93.9,102 			"/>
		</g>
	</g>
</g>
<g id="Community_02" class="st0">
	<g class="st1">
		<g>
			<path class="st10" d="M73.2,80.5H65c-4.7,0-8.6,3.8-8.6,8.6V99h11.3"/>
			<g>
				<circle class="st3" cx="88.2" cy="69" r="9.1"/>
				<path class="st3" d="M94.4,80.5H81.8c-5.4,0-9.8,4.4-9.8,9.8V99h32.2v-8.7C104.2,84.9,99.8,80.5,94.4,80.5z"/>
			</g>
			<path class="st10" d="M77.6,61.5c-1.4-0.9-3.1-1.5-5-1.5c-5,0-9.1,4.1-9.1,9.1s4.1,9.1,9.1,9.1c1.9,0,3.6-0.5,5-1.5"/>
		</g>
		
			<ellipse transform="matrix(1 -2.499992e-03 2.499992e-03 1 -0.1985 0.2011)" class="st17" cx="80.3" cy="79.5" rx="44.3" ry="44.3"/>
	</g>
</g>
<g id="Upgrade" class="st0">
	<g class="st1">
		
			<ellipse transform="matrix(0.9997 -2.410023e-02 2.410023e-02 0.9997 -1.9048 1.9512)" class="st17" cx="80" cy="80" rx="44.2" ry="44.2"/>
		<g>
			<polyline class="st3" points="79.7,84 104.9,84 104.9,55.1 76,55.1 76,81.2 			"/>
			<polyline class="st2" points="85.1,61.8 98.1,61.8 98.1,74.9 			"/>
			<polyline class="st2" points="71.8,85.1 55.1,85.1 55.1,104.9 74.8,104.9 74.8,88.6 			"/>
			<line class="st2" x1="95.7" y1="64.3" x2="63.3" y2="96.7"/>
		</g>
	</g>
</g>
<g id="Customer_Service" class="st0">
	<g class="st1">
		<g>
			<path class="st3" d="M83.5,86.3c0-0.7,0.3-1.4,0.8-2l0,0c1.1-1.1,2.9-1.1,3.9,0l5.5,5.5c1.1,1.1,1.1,2.9,0,3.9l0,0
				c-1.1,1.1-2.9,1.1-3.9,0"/>
			<path class="st3" d="M87.4,82.4c0-0.7,0.3-1.4,0.8-2l0,0c1.1-1.1,2.9-1.1,3.9,0l5.5,5.5c1.1,1.1,1.1,2.9,0,3.9l0,0
				c-1.1,1.1-2.9,1.1-3.9,0"/>
			<path class="st3" d="M79.6,90.3c0-0.7,0.3-1.4,0.8-2l0,0c1.1-1.1,2.9-1.1,3.9,0l5.5,5.5c1.1,1.1,1.1,2.9,0,3.9l0,0
				c-1.1,1.1-2.9,1.1-3.9,0"/>
			<path class="st3" d="M82,101.8l-4.2-4.2c-1.1-1.1-1.1-2.9,0-3.9l0,0c1.1-1.1,2.9-1.1,3.9,0l4.2,4.2c1.1,1.1,1.1,2.9,0,3.9l0,0
				C84.8,102.9,83,102.9,82,101.8z"/>
			<path class="st10" d="M76.4,99c-1.1,1.1-1.1,2.8,0,3.8l0.1,0.1c1.1,1.1,2.8,1.1,3.8,0l0.7-0.7"/>
			<path class="st10" d="M76.4,99c-1.1,1.1-2.8,1.1-3.8,0l-0.1-0.1c-1.1-1.1-1.1-2.8,0-3.8"/>
			<path class="st10" d="M72.4,95c-1.1,1.1-2.8,1.1-3.8,0l-0.1-0.1c-1.1-1.1-1.1-2.8,0-3.8"/>
			<path class="st10" d="M68.5,91.1c-1.1,1.1-2.8,1.1-3.8,0L64.6,91c-1.1-1.1-1.1-2.8,0-3.8l12.5-12.5"/>
			<path class="st3" d="M70.4,67.7c2.1,2.1,5.2,0,5.9-0.3c2.9-1.4,4.3,1.7,11.3,8.7c0,0-2.7,6.3-10.4-1.4"/>
			<line class="st3" x1="64" y1="86.1" x2="57.9" y2="80"/>
			<line class="st10" x1="102.6" y1="80.7" x2="98.3" y2="85"/>
			<path class="st10" d="M82.4,69.2c2.5-2.5,4.3,2.2,7.6-1"/>
			<polyline class="st10" points="96.2,59.7 89.6,66.2 104.6,81.2 111.1,74.7 			"/>
			<polyline class="st3" points="49.6,74.1 56,80.6 71,65.6 64.5,59.1 			"/>
		</g>
		
			<ellipse transform="matrix(1 -2.499992e-03 2.499992e-03 1 -0.1985 0.2011)" class="st17" cx="80.3" cy="79.5" rx="44.3" ry="44.3"/>
	</g>
</g>
<g id="Layer_08" class="st0">
	<g class="st1">
		
			<ellipse transform="matrix(0.9997 -2.410023e-02 2.410023e-02 0.9997 -1.8926 1.9591)" class="st17" cx="80.3" cy="79.5" rx="44.2" ry="44.2"/>
		<g>
			<rect x="57.9" y="79.2" class="st2" width="22.6" height="22.6"/>
			<rect x="81" y="64.7" class="st2" width="13.1" height="13.1"/>
			<rect x="95.1" y="56.3" class="st3" width="7.1" height="7.1"/>
		</g>
	</g>
</g>
<g id="Execution_speed_1_" class="st0">
	<g class="st1">
		<circle class="st17" cx="80.3" cy="79.5" r="44.2"/>
		<path class="st2" d="M97.3,63.5c3.9,4.2,6.3,9.8,6.3,16c0,12.4-9.7,22.6-22,23.3"/>
		<path class="st3" d="M80.3,102.8C67.5,102.8,57,92.3,57,79.5s10.5-23.4,23.4-23.4c6.1,0,11.8,2.4,16,6.3"/>
		<g>
			<line class="st2" x1="80.3" y1="57.1" x2="80.3" y2="60.1"/>
			<line class="st2" x1="80.3" y1="98.8" x2="80.3" y2="101.8"/>
		</g>
		<g>
			<line class="st2" x1="102.7" y1="79.5" x2="99.7" y2="79.5"/>
			<line class="st2" x1="61" y1="79.5" x2="58" y2="79.5"/>
		</g>
		<line class="st2" x1="80.3" y1="79.5" x2="94.9" y2="64.9"/>
	</g>
</g>
<g id="Layer_09" class="st0">
	<g class="st1">
		
			<ellipse transform="matrix(0.9997 -2.410023e-02 2.410023e-02 0.9997 -1.8926 1.9591)" class="st17" cx="80.3" cy="79.5" rx="44.2" ry="44.2"/>
		<g>
			<polyline class="st3" points="98.9,90.6 102.4,90.6 102.4,56.9 68.8,56.9 68.8,62.2 			"/>
			<polyline class="st2" points="91.5,93.2 95.5,93.2 95.5,64.8 67.1,64.8 67.1,69.4 			"/>
			<polyline class="st3" points="83.8,97.5 88.4,97.5 88.4,71.8 62.7,71.8 62.7,77.1 			"/>
			<polygon class="st2" points="78.4,101.6 80.6,101.6 80.6,80.1 59.2,80.1 59.2,82.9 59.2,101.6 			"/>
		</g>
	</g>
</g>
<g id="Idea_1_" class="st0">
	<g class="st1">
		<g>
			<line class="st3" x1="80.3" y1="58.8" x2="80.3" y2="48.8"/>
			<line class="st3" x1="67.1" y1="64.2" x2="60.1" y2="57.2"/>
			<line class="st3" x1="61.7" y1="77.5" x2="51.7" y2="77.5"/>
			<line class="st3" x1="67.1" y1="90.7" x2="60.1" y2="97.7"/>
			<line class="st3" x1="93.6" y1="90.7" x2="100.5" y2="97.7"/>
			<line class="st3" x1="99" y1="77.5" x2="109" y2="77.5"/>
			<line class="st3" x1="93.6" y1="64.2" x2="100.5" y2="57.2"/>
			<path class="st2" d="M94.9,77.6C94.9,67.2,84,59.3,73,64.8c-2.4,1.2-4.4,3.1-5.6,5.6c-4,8.1-0.8,16.1,5.3,19.8v5.7h15v-5.7
				C92,87.6,94.9,82.9,94.9,77.6z"/>
			<polyline class="st3" points="72.9,98.4 72.9,107.2 87.8,107.2 87.8,98.4 			"/>
			<line class="st2" x1="80.3" y1="93.4" x2="80.3" y2="88.4"/>
			<path class="st2" d="M84.2,82.4c0,2.2-1.7,3.9-3.9,3.9s-3.9-1.7-3.9-3.9"/>
			<line class="st3" x1="74.9" y1="102.1" x2="85.7" y2="102.1"/>
		</g>
		
			<ellipse transform="matrix(1 -2.499992e-03 2.499992e-03 1 -0.1985 0.2011)" class="st17" cx="80.3" cy="79.5" rx="44.3" ry="44.3"/>
	</g>
</g>
<g id="Stack_1_" class="st0">
	<g class="st1">
		
			<ellipse transform="matrix(0.9997 -2.410023e-02 2.410023e-02 0.9997 -1.8926 1.9591)" class="st17" cx="80.3" cy="79.5" rx="44.2" ry="44.2"/>
		<g>
			<polygon class="st3" points="80.3,54.9 59.4,68.6 80.3,82.3 101.2,68.6 			"/>
			<polyline class="st2" points="63,72.7 59.4,75.1 80.3,88.7 101.2,75.1 97.6,72.7 			"/>
			<polyline class="st2" points="63,80 59.4,82.4 80.3,96.1 101.2,82.4 97.6,80 			"/>
			<polyline class="st2" points="63,88 59.4,90.4 80.3,104.1 101.2,90.4 97.6,88 			"/>
		</g>
	</g>
</g>
<g id="Layer_10" class="st0">
	<g class="st1">
		
			<ellipse transform="matrix(0.9997 -2.410023e-02 2.410023e-02 0.9997 -1.8926 1.9591)" class="st17" cx="80.3" cy="79.5" rx="44.2" ry="44.2"/>
		<g>
			<rect x="57.7" y="56.8" class="st3" width="45.3" height="45.3"/>
			<rect x="64.5" y="63.6" class="st3" width="31.8" height="31.8"/>
			<rect x="72" y="71.2" class="st2" width="16.6" height="16.6"/>
		</g>
	</g>
</g>
<g id="Heat_Map_02_1_" class="st0">
	<g class="st1">
		
			<ellipse transform="matrix(0.9997 -2.410023e-02 2.410023e-02 0.9997 -1.8926 1.9591)" class="st17" cx="80.3" cy="79.5" rx="44.1" ry="44.1"/>
		<g>
			<circle class="st3" cx="79.5" cy="80.9" r="5.8"/>
			<circle class="st3" cx="96" cy="57.6" r="5.8"/>
			<circle class="st3" cx="97.1" cy="97.9" r="5.8"/>
			<circle class="st3" cx="56" cy="68.9" r="5.8"/>
			<line class="st10" x1="84.6" y1="73.9" x2="91.1" y2="65.7"/>
			<line class="st10" x1="85.6" y1="86.9" x2="90.2" y2="92.4"/>
			<line class="st10" x1="62.9" y1="73.7" x2="71.9" y2="76.1"/>
		</g>
	</g>
</g>
<g id="Clock" class="st0">
	<g class="st1">
		<g>
			<line class="st2" x1="80.5" y1="49.4" x2="80.5" y2="79.5"/>
		</g>
		<g>
			<line class="st3" x1="80.3" y1="38.3" x2="80.3" y2="44"/>
			<line class="st2" x1="59.8" y1="43.8" x2="62.6" y2="48.7"/>
			<line class="st2" x1="44.7" y1="58.9" x2="49.6" y2="61.7"/>
			<line class="st3" x1="39.2" y1="79.5" x2="44.8" y2="79.5"/>
			<line class="st2" x1="44.7" y1="100.1" x2="49.6" y2="97.2"/>
			<line class="st2" x1="59.7" y1="115.2" x2="62.6" y2="110.3"/>
			<line class="st3" x1="80.3" y1="120.7" x2="80.3" y2="115"/>
			<line class="st2" x1="100.9" y1="115.2" x2="98.1" y2="110.3"/>
			<line class="st2" x1="116" y1="100.1" x2="111.1" y2="97.3"/>
			<line class="st3" x1="121.5" y1="79.5" x2="115.9" y2="79.5"/>
			<line class="st2" x1="116" y1="58.9" x2="111.1" y2="61.8"/>
			<line class="st2" x1="100.9" y1="43.8" x2="98.1" y2="48.7"/>
		</g>
		<g>
			<line class="st2" x1="104.2" y1="79.5" x2="80.5" y2="79.5"/>
		</g>
	</g>
	<circle class="st18" cx="80.3" cy="79.5" r="44.1"/>
</g>
<g id="Community_4_">
	<g id="Community_2_">
		<g>
			<circle class="st10" cx="61.8" cy="65.2" r="14.9"/>
			<path class="st10" d="M36.2,108.7v-8.6c0-7.9,6.4-14.3,14.3-14.3h23.5c7.9,0,14.3,6.4,14.3,14.3v8.6"/>
			<circle class="st4" cx="97.9" cy="65.2" r="14.9"/>
			<path class="st4" d="M86.6,85.8h23.5c7.9,0,14.3,6.4,14.3,14.3v8.6"/>
		</g>
	</g>
</g>
<g id="Layer_107" class="st0">
	<g class="st1">
		<line class="st2" x1="83.5" y1="19.2" x2="83.5" y2="23.8"/>
		<line class="st2" x1="66.9" y1="23.7" x2="69.2" y2="27.7"/>
		<line class="st2" x1="54.7" y1="35.9" x2="58.6" y2="38.2"/>
		<line class="st2" x1="50.2" y1="52.5" x2="54.8" y2="52.5"/>
		<line class="st2" x1="112.4" y1="69.2" x2="108.4" y2="66.9"/>
		<line class="st2" x1="116.8" y1="52.6" x2="112.3" y2="52.6"/>
		<line class="st2" x1="112.4" y1="35.9" x2="108.4" y2="38.2"/>
		<line class="st2" x1="100.2" y1="23.7" x2="97.9" y2="27.7"/>
	</g>
	<g class="st1">
		<line class="st2" x1="99.8" y1="63.1" x2="83.8" y2="52.6"/>
	</g>
	<g class="st1">
		<g id="Account_History_1_">
			<g>
				<g>
					<polyline class="st4" points="43.3,72.7 57.8,76.3 61.5,61.4 					"/>
				</g>
			</g>
		</g>
		<g>
			<g id="Money_1_">
				<g>
					<circle class="st2" cx="83.4" cy="107.6" r="35.5"/>
					<path class="st3" d="M79.2,125.4c-5.5-1.5-8.2-6-8.2-9.1"/>
					<path class="st3" d="M88,106.8c5.5,1.6,7.9,6,7.9,9.5c0,3.5-2.6,7.5-7.9,9"/>
					<path class="st3" d="M79.2,90.5c-3.6,1.2-6.5,4.1-5.9,8.5c0.5,3.4,2.9,5.5,5.8,6.5"/>
					<path class="st3" d="M94,98c0,0-0.6-5.4-6-7.4"/>
					<line class="st2" x1="83.4" y1="84.9" x2="83.4" y2="130.4"/>
				</g>
			</g>
			<path class="st4" d="M57.7,76.1c-1-1.1-2-2.2-2.8-3.4c-4.4-5.9-7-13.3-7-21.2c0-19.7,16-35.7,35.7-35.7s35.7,16,35.7,35.7
				c0,9.8-3.9,18.6-10.3,25"/>
		</g>
	</g>
	<g class="st1">
		<line class="st2" x1="83.7" y1="28.2" x2="83.7" y2="52.6"/>
	</g>
</g>
<g id="Alerts_x5F_01" class="st0">
	<g id="Alerts_01" class="st1">
		<g>
			<circle class="st9" cx="80" cy="80.3" r="18.9"/>
			<path class="st4" d="M87.2,80.9v-4.8c0,0-0.5-5.6-5.9-6.7c-0.3-0.1-0.6-0.2-1-0.2c-0.1,0-0.2,0-0.4,0c-0.1,0-0.2,0-0.4,0
				c-0.4,0-0.7,0.1-1,0.2c-5.4,1-5.9,6.7-5.9,6.7v4.8l-2.2,2.6v2.8h9.1h0.7h9.1v-2.8L87.2,80.9z"/>
			<path class="st4" d="M82.6,88.9c0,1.4-1.2,2.6-2.6,2.6s-2.6-1.2-2.6-2.6"/>
			<line class="st10" x1="43" y1="51.2" x2="84.8" y2="51.2"/>
			<line class="st10" x1="42.3" y1="104.2" x2="82.7" y2="104.2"/>
			<circle class="st4" cx="63.6" cy="111.6" r="4.4"/>
			<path class="st10" d="M83.3,120H43.9c-2.4,0-4.3-1.9-4.3-4.3V43.3c0-2.4,1.9-4.3,4.3-4.3h39.4c2.4,0,4.3,1.9,4.3,4.3v8"/>
			<line class="st10" x1="97.3" y1="63.9" x2="117.4" y2="63.9"/>
			<line class="st10" x1="87.8" y1="107.1" x2="118.4" y2="107.1"/>
			<circle class="st4" cx="103.1" cy="113.7" r="3.3"/>
			<path class="st10" d="M85.2,58.2c0-2.4,1.9-4.3,4.3-4.3h27.3c2.4,0,4.3,1.9,4.3,4.3v57.5c0,2.4-1.9,4.3-4.3,4.3H89.5
				c-2.4,0-4.3-1.9-4.3-4.3v-14.6"/>
		</g>
	</g>
</g>
<g id="Account_Monitoring" class="st0">
	<g class="st1">
		<path class="st3" d="M75.9,75.4c9.4,9.2,13,28.1,30,39.1"/>
		<path class="st3" d="M64.4,70c-22.1,0-20.1,30.3-44.2,45.1"/>
		<g>
			<path class="st2" d="M92.2,44c23.3,0,19.8,50.1,48.3,70.5"/>
			<path class="st2" d="M92.1,44c-23.3,0-19.8,50.1-48.3,70.5"/>
		</g>
		<ellipse transform="matrix(0.2094 -0.9778 0.9778 0.2094 -44.5633 85.443)" class="st2" cx="30.6" cy="70.3" rx="3.3" ry="3.3"/>
		<circle class="st3" cx="61.2" cy="54.6" r="3.3"/>
		<circle class="st3" cx="98.8" cy="84.5" r="3.3"/>
	</g>
</g>
<g id="Account_History_3_" class="st0">
	<g id="Account_History_2_" class="st1">
		<g>
			<g>
				<polyline class="st4" points="31.9,101.8 49.9,106.2 54.5,87.9 				"/>
				<path class="st4" d="M49.8,106.1c-5.6-7.4-8.9-16.7-8.9-26.6c0-24.2,19.7-44,44-44s43.9,19.8,43.9,44s-19.7,44-44,44
					c-9.7,0-18.8-3.2-26.1-8.6"/>
			</g>
			<line class="st2" x1="83.9" y1="79.5" x2="114.1" y2="79.5"/>
			<line class="st2" x1="83.7" y1="79.4" x2="83.7" y2="49.1"/>
		</g>
	</g>
</g>
<g id="Satellite" class="st0">
	<rect class="st1" width="160.7" height="159"/>
	<g class="st1">
		<path class="st19" d="M97.7,96.8c-10.4,10.4-27.4,10.4-37.9,0s-10.4-27.4,0-37.9L97.7,96.8z"/>
		<path class="st10" d="M86.1,52.2c5-5,13.1-5,18.2,0s5,13.1,0,18.2"/>
		<path class="st10" d="M76.9,43c10.1-10.1,26.5-10.1,36.6,0s10.1,26.5,0,36.6"/>
		<line class="st10" x1="78.7" y1="77.8" x2="90" y2="66.6"/>
		<polygon class="st19" points="59.5,104.6 78.7,123.6 39.6,123.6 		"/>
	</g>
</g>
<g id="Savings_04" class="st0">
	<rect class="st1" width="160.7" height="159"/>
	<g class="st1">
		<circle class="st2" cx="80.3" cy="79.5" r="44.2"/>
		<path class="st19" d="M75,101.6c-6.9-1.9-10.2-7.5-10.2-11.3"/>
		<path class="st19" d="M86,78.5c6.8,2,9.8,7.5,9.8,11.9c0,4.4-3.2,9.4-9.8,11.2"/>
		<path class="st19" d="M75.1,58.1c-4.5,1.5-8.1,5.1-7.3,10.6c0.6,4.2,3.6,6.8,7.2,8.1"/>
		<path class="st19" d="M93.5,67.5c0,0-0.7-6.7-7.5-9.2"/>
		<line class="st2" x1="80.3" y1="51.2" x2="80.3" y2="107.8"/>
	</g>
</g>
<g id="Community_1_" class="st0">
	<rect class="st1" width="160.7" height="159"/>
	<circle class="st20" cx="43.8" cy="65.2" r="14.9"/>
	<path class="st20" d="M18.2,108.7v-8.6c0-7.9,6.4-14.3,14.3-14.3H56c7.9,0,14.3,6.4,14.3,14.3v8.6"/>
	<circle class="st20" cx="79.8" cy="65.2" r="14.9"/>
	<path class="st20" d="M68.6,85.8h23.5c7.9,0,14.3,6.4,14.3,14.3v8.6"/>
	<circle class="st21" cx="115.9" cy="65.2" r="14.9"/>
	<path class="st21" d="M104.6,85.8h23.5c7.9,0,14.3,6.4,14.3,14.3v8.6"/>
</g>
<g id="Heat_Map_02" class="st0">
	<rect class="st1" width="160.7" height="159"/>
	<g class="st1">
		<circle class="st19" cx="85.2" cy="82.9" r="9.2"/>
		<circle class="st19" cx="111.4" cy="46.3" r="9.2"/>
		<circle class="st19" cx="113" cy="109.6" r="9.2"/>
		<circle class="st19" cx="48.3" cy="64.1" r="9.2"/>
		<line class="st10" x1="93.4" y1="71.8" x2="103.8" y2="59.1"/>
		<line class="st10" x1="94.9" y1="92.4" x2="102.4" y2="101"/>
		<line class="st10" x1="59.3" y1="71.6" x2="73.4" y2="75.3"/>
	</g>
</g>
<g id="MyTrade_Community_1_" class="st0">
	<rect class="st1" width="160.7" height="159"/>
	<g class="st1">
		<circle class="st19" cx="80.3" cy="41.5" r="5.9"/>
		<ellipse transform="matrix(0.5 -0.866 0.866 0.5 -28.6843 71.3271)" class="st6" cx="47.4" cy="60.5" rx="5.9" ry="5.9"/>
		<ellipse transform="matrix(0.866 -0.5 0.5 0.866 -42.8826 36.8994)" class="st19" cx="47.4" cy="98.5" rx="5.9" ry="5.9"/>
		<circle class="st19" cx="80.3" cy="117.5" r="5.9"/>
		<ellipse transform="matrix(0.5 -0.866 0.866 0.5 -28.6726 147.2682)" class="st19" cx="113.2" cy="98.5" rx="5.9" ry="5.9"/>
		<ellipse transform="matrix(0.866 -0.5 0.5 0.866 -15.081 64.7327)" class="st19" cx="113.2" cy="60.5" rx="5.9" ry="5.9"/>
		<ellipse transform="matrix(0.866 -0.5 0.5 0.866 -28.9958 50.83)" class="st6" cx="80.3" cy="79.5" rx="5.9" ry="5.9"/>
	</g>
</g>
<g id="Chat_01_1_" class="st0">
	<rect class="st1" width="160.7" height="159"/>
	<g class="st1">
		<polyline class="st19" points="54.8,48.4 113.9,48.4 113.9,90 		"/>
		<polygon class="st19" points="46.7,56.5 46.7,98.2 55.5,98.2 55.5,110.6 67.8,98.2 105.8,98.2 105.8,56.5 		"/>
		<g>
			<line class="st10" x1="60.2" y1="73.6" x2="92.3" y2="73.6"/>
			<line class="st10" x1="60.2" y1="82.8" x2="92.3" y2="82.8"/>
		</g>
	</g>
</g>
<g id="Chat_02" class="st0">
	<rect class="st1" width="160.7" height="159"/>
	<g class="st1">
		<g>
			<polyline class="st19" points="64.2,82.7 56.9,82.7 46.3,93.3 46.3,82.7 38.8,82.7 38.8,47.1 89.5,47.1 89.5,59.5 			"/>
		</g>
		<g>
			<polygon class="st10" points="121.8,65.7 121.8,101.3 114.3,101.3 114.3,111.9 103.7,101.3 71.2,101.3 71.2,65.7 			"/>
		</g>
	</g>
</g>
<g id="Company_Profile" class="st0">
	<rect class="st1" width="160.7" height="159"/>
	<g class="st1">
		<rect x="41.9" y="45.6" class="st2" width="48.8" height="48.8"/>
		<polygon class="st2" points="118.8,113.4 70.1,113.4 70.1,64.6 89.1,64.6 118.8,64.6 		"/>
		<line class="st19" x1="41.9" y1="45.6" x2="70.1" y2="64.6"/>
		<line class="st19" x1="41.9" y1="94.4" x2="70.1" y2="113.4"/>
		<line class="st19" x1="90.6" y1="45.6" x2="118.8" y2="64.6"/>
		<line class="st19" x1="90.6" y1="94.4" x2="118.8" y2="113.4"/>
	</g>
</g>
<g id="Third_Party_Analyst" class="st0">
	<rect class="st1" width="160.7" height="159"/>
	<g class="st1">
		<polyline class="st19" points="100.1,54.7 109.2,54.7 109.2,121.5 51.5,121.5 51.5,54.7 59.9,54.7 		"/>
		<polygon class="st19" points="87.8,47.1 87.8,37.5 72.9,37.5 72.9,47.1 67.3,47.1 67.3,61.2 72.9,61.2 87.8,61.2 93.4,61.2 
			93.4,47.1 		"/>
		<polyline class="st10" points="60.4,82.2 66.8,88.6 83,72.4 		"/>
		<polyline class="st10" points="60.4,103.9 66.8,110.3 83,94.1 		"/>
	</g>
</g>
<g id="Live_Audio_1_" class="st0">
	<g class="st1">
		<rect width="160.7" height="159"/>
		<polygon class="st19" points="91.8,102.8 59.3,88.6 59.3,70.3 91.8,56.2 		"/>
		<rect x="42.2" y="70.3" class="st19" width="17" height="18.5"/>
		<line class="st10" x1="101.4" y1="79.5" x2="118.4" y2="79.5"/>
		<line class="st10" x1="101.4" y1="70.2" x2="113.5" y2="58.3"/>
		<line class="st10" x1="101.4" y1="88.3" x2="113.5" y2="100.3"/>
	</g>
</g>
<g id="Support_2_" class="st0">
	<rect class="st1" width="160.7" height="159"/>
	<g class="st1">
		
			<ellipse transform="matrix(0.9997 -2.410023e-02 2.410023e-02 0.9997 -1.9059 1.9573)" class="st17" cx="80.2" cy="80" rx="44.2" ry="44.2"/>
		<g>
			<path class="st2" d="M59.4,85.9v-9.7c0-10.3,9.4-18.7,20.9-18.7l0,0c11.5,0,20.9,8.4,20.9,18.7v9.7"/>
			<path class="st19" d="M95,93.6L95,93.6c-1.9,0-3.3-1.5-3.3-3.3v-7.9c0.1-2,1.6-3.4,3.3-3.3l0,0c1.9,0,3.3,1.5,3.3,3.3v7.8
				C98.4,92.1,96.9,93.6,95,93.6z"/>
			<path class="st19" d="M65.7,93.6h-1.1c-1.5,0-2.8-1.3-2.8-2.8v-8.9c0-1.5,1.3-2.8,2.8-2.8h1.1c1.5,0,2.8,1.3,2.8,2.8v8.9
				C68.5,92.3,67.3,93.6,65.7,93.6z"/>
			<circle class="st19" cx="84.3" cy="99.7" r="2.8"/>
			<polyline class="st2" points="89,99.7 95.6,99.7 95.6,95.9 			"/>
		</g>
	</g>
</g>
<g id="Stack" class="st0">
	<rect class="st1" width="160.7" height="159"/>
	<g class="st1">
		
			<ellipse transform="matrix(0.9997 -2.410023e-02 2.410023e-02 0.9997 -1.9059 1.9573)" class="st17" cx="80.2" cy="80" rx="44.2" ry="44.2"/>
		<g>
			<polygon class="st19" points="80.2,55.4 59.4,69.1 80.2,82.9 101.1,69.1 			"/>
			<polyline class="st2" points="62.9,73.3 59.4,75.6 80.2,89.3 101.1,75.6 97.6,73.3 			"/>
			<polyline class="st2" points="62.9,80.5 59.4,82.9 80.2,96.6 101.1,82.9 97.6,80.5 			"/>
			<polyline class="st2" points="62.9,88.6 59.4,90.9 80.2,104.6 101.1,90.9 97.6,88.6 			"/>
		</g>
	</g>
</g>
<g id="Execution_speed_2_" class="st0">
	<rect class="st1" width="160.7" height="159"/>
	<g class="st1">
		<circle class="st17" cx="80.2" cy="80.1" r="44.2"/>
		<path class="st2" d="M97.3,64c3.9,4.2,6.3,9.8,6.3,16c0,12.4-9.7,22.6-22,23.3"/>
		<path class="st19" d="M80.2,103.4c-12.9,0-23.4-10.5-23.4-23.4s10.5-23.4,23.4-23.4c6.1,0,11.8,2.4,16,6.3"/>
		<g>
			<line class="st2" x1="80.2" y1="57.7" x2="80.2" y2="60.7"/>
			<line class="st2" x1="80.2" y1="99.4" x2="80.2" y2="102.4"/>
		</g>
		<g>
			<line class="st2" x1="102.6" y1="80.1" x2="99.6" y2="80.1"/>
			<line class="st2" x1="60.9" y1="80.1" x2="57.9" y2="80.1"/>
		</g>
		<line class="st2" x1="80.2" y1="80.1" x2="94.8" y2="65.4"/>
	</g>
</g>
<g id="Guides" class="st0">
</g>
</svg>
